<svg xmlns="http://www.w3.org/2000/svg" xmlns:xlink="http://www.w3.org/1999/xlink" width="500" zoomAndPan="magnify" viewBox="0 0 375 374.999991" height="500" preserveAspectRatio="xMidYMid meet" version="1.2"><defs><clipPath id="7e5db8e1d4"><path d="M 60.933594 18.542969 L 314.066406 18.542969 L 314.066406 271.679688 L 60.933594 271.679688 Z M 60.933594 18.542969 "/></clipPath><clipPath id="ed280e1f76"><path d="M 187.5 18.542969 C 117.597656 18.542969 60.933594 75.210938 60.933594 145.113281 C 60.933594 215.011719 117.597656 271.679688 187.5 271.679688 C 257.402344 271.679688 314.066406 215.011719 314.066406 145.113281 C 314.066406 75.210938 257.402344 18.542969 187.5 18.542969 Z M 187.5 18.542969 "/></clipPath><clipPath id="51f1b67939"><path d="M 0.933594 0.542969 L 254.066406 0.542969 L 254.066406 253.679688 L 0.933594 253.679688 Z M 0.933594 0.542969 "/></clipPath><clipPath id="742b57d332"><path d="M 127.5 0.542969 C 57.597656 0.542969 0.933594 57.210938 0.933594 127.113281 C 0.933594 197.011719 57.597656 253.679688 127.5 253.679688 C 197.402344 253.679688 254.066406 197.011719 254.066406 127.113281 C 254.066406 57.210938 197.402344 0.542969 127.5 0.542969 Z M 127.5 0.542969 "/></clipPath><clipPath id="7a19775878"><rect x="0" width="255" y="0" height="254"/></clipPath><clipPath id="9d738feb87"><path d="M 60.933594 18.542969 L 314.058594 18.542969 L 314.058594 271.667969 L 60.933594 271.667969 Z M 60.933594 18.542969 "/></clipPath><clipPath id="0e7f7fea6f"><path d="M 187.496094 18.542969 C 117.597656 18.542969 60.933594 75.207031 60.933594 145.105469 C 60.933594 215.003906 117.597656 271.667969 187.496094 271.667969 C 257.394531 271.667969 314.058594 215.003906 314.058594 145.105469 C 314.058594 75.207031 257.394531 18.542969 187.496094 18.542969 Z M 187.496094 18.542969 "/></clipPath><clipPath id="05f2db5e9b"><path d="M 77.179688 145 L 297.679688 145 L 297.679688 183 L 77.179688 183 Z M 77.179688 145 "/></clipPath><clipPath id="41a7409637"><path d="M 77.179688 105 L 297.679688 105 L 297.679688 143 L 77.179688 143 Z M 77.179688 105 "/></clipPath><clipPath id="fbd35f7292"><path d="M 37.5 36.667969 L 337.5 36.667969 L 337.5 356 L 37.5 356 Z M 37.5 36.667969 "/></clipPath><clipPath id="149c6a61ac"><path d="M 45.160156 168.53125 L 330 168.53125 L 330 238.863281 L 45.160156 238.863281 Z M 45.160156 168.53125 "/></clipPath><clipPath id="e6c998f700"><path d="M 320.183594 168.53125 L 54.816406 168.53125 C 54.816406 173.84375 50.519531 178.183594 45.160156 178.183594 L 45.160156 229.207031 C 50.472656 229.207031 54.816406 233.503906 54.816406 238.863281 L 320.183594 238.863281 C 320.183594 233.546875 324.480469 229.207031 329.839844 229.207031 L 329.839844 178.183594 C 324.527344 178.183594 320.183594 173.890625 320.183594 168.53125 Z M 320.183594 168.53125 "/></clipPath><clipPath id="ab7d629987"><path d="M 0.160156 0.53125 L 285 0.53125 L 285 70.863281 L 0.160156 70.863281 Z M 0.160156 0.53125 "/></clipPath><clipPath id="918fa15d38"><path d="M 275.183594 0.53125 L 9.816406 0.53125 C 9.816406 5.84375 5.519531 10.183594 0.160156 10.183594 L 0.160156 61.207031 C 5.472656 61.207031 9.816406 65.503906 9.816406 70.863281 L 275.183594 70.863281 C 275.183594 65.546875 279.480469 61.207031 284.839844 61.207031 L 284.839844 10.183594 C 279.527344 10.183594 275.183594 5.890625 275.183594 0.53125 Z M 275.183594 0.53125 "/></clipPath><clipPath id="2d14ea0c1b"><rect x="0" width="285" y="0" height="71"/></clipPath><clipPath id="63ca2fdd96"><path d="M 137.25 30.074219 L 257.25 30.074219 L 257.25 167 L 137.25 167 Z M 137.25 30.074219 "/></clipPath><clipPath id="550ea0546b"><path d="M 105.15625 210.703125 L 130.316406 210.703125 L 130.316406 235.824219 L 105.15625 235.824219 Z M 105.15625 210.703125 "/></clipPath><clipPath id="14bf7169fe"><path d="M 105.128906 232 L 113 232 L 113 236.941406 L 105.128906 236.941406 Z M 105.128906 232 "/></clipPath><clipPath id="c3d2ef38a3"><path d="M 244.667969 210.703125 L 269.828125 210.703125 L 269.828125 235.824219 L 244.667969 235.824219 Z M 244.667969 210.703125 "/></clipPath><clipPath id="b58eb4df89"><path d="M 244.636719 232 L 252 232 L 252 236.941406 L 244.636719 236.941406 Z M 244.636719 232 "/></clipPath></defs><g id="a414f55cac"><rect x="0" width="375" y="0" height="374.999991" style="fill:#ffffff;fill-opacity:1;stroke:none;"/><rect x="0" width="375" y="0" height="374.999991" style="fill:#fdf8e1;fill-opacity:1;stroke:none;"/><g clip-rule="nonzero" clip-path="url(#7e5db8e1d4)"><g clip-rule="nonzero" clip-path="url(#ed280e1f76)"><g transform="matrix(1,0,0,1,60,18)"><g clip-path="url(#7a19775878)"><g clip-rule="nonzero" clip-path="url(#51f1b67939)"><g clip-rule="nonzero" clip-path="url(#742b57d332)"><path style=" stroke:none;fill-rule:nonzero;fill:#f4edcc;fill-opacity:1;" d="M 0.933594 0.542969 L 254.066406 0.542969 L 254.066406 253.679688 L 0.933594 253.679688 Z M 0.933594 0.542969 "/></g></g></g></g></g></g><g clip-rule="nonzero" clip-path="url(#9d738feb87)"><g clip-rule="nonzero" clip-path="url(#0e7f7fea6f)"><path style="fill:none;stroke-width:34;stroke-linecap:butt;stroke-linejoin:miter;stroke:#263940;stroke-opacity:1;stroke-miterlimit:4;" d="M 168.751026 -0.00218276 C 75.553103 -0.00218276 0.001015 75.549906 0.001015 168.747828 C 0.001015 261.945751 75.553103 337.497839 168.751026 337.497839 C 261.948949 337.497839 337.501037 261.945751 337.501037 168.747828 C 337.501037 75.549906 261.948949 -0.00218276 168.751026 -0.00218276 Z M 168.751026 -0.00218276 " transform="matrix(0.75,0,0,0.75,60.932832,18.544606)"/></g></g><g clip-rule="nonzero" clip-path="url(#05f2db5e9b)"><path style=" stroke:none;fill-rule:nonzero;fill:#d96e30;fill-opacity:1;" d="M 291.179688 182.777344 C 295.476562 170.832031 297.644531 158.511719 297.679688 145.816406 L 77.191406 145.816406 C 77.222656 158.519531 79.390625 170.847656 83.691406 182.796875 Z M 291.179688 182.777344 "/></g><g clip-rule="nonzero" clip-path="url(#41a7409637)"><path style=" stroke:none;fill-rule:nonzero;fill:#d96e30;fill-opacity:1;" d="M 290.214844 105.398438 L 84.648438 105.398438 C 80.023438 117.292969 77.546875 129.621094 77.214844 142.378906 L 297.679688 142.378906 C 297.335938 129.621094 294.847656 117.292969 290.214844 105.398438 Z M 290.214844 105.398438 "/></g><path style=" stroke:none;fill-rule:nonzero;fill:#d98d30;fill-opacity:1;" d="M 112.835938 226.566406 C 114.09375 227.722656 115.375 228.847656 116.683594 229.945312 C 117.992188 231.039062 119.328125 232.105469 120.6875 233.140625 C 122.046875 234.175781 123.425781 235.175781 124.832031 236.144531 C 126.238281 237.117188 127.664062 238.050781 129.113281 238.957031 C 130.5625 239.859375 132.03125 240.730469 133.519531 241.5625 C 135.007812 242.398438 136.515625 243.199219 138.042969 243.964844 C 139.570312 244.730469 141.113281 245.460938 142.671875 246.152344 C 144.234375 246.847656 145.808594 247.503906 147.398438 248.121094 C 148.988281 248.742188 150.59375 249.324219 152.210938 249.871094 C 153.828125 250.417969 155.460938 250.925781 157.101562 251.394531 C 158.742188 251.863281 160.394531 252.296875 162.054688 252.691406 C 163.714844 253.082031 165.386719 253.4375 167.0625 253.753906 C 168.742188 254.066406 170.425781 254.34375 172.117188 254.582031 C 173.808594 254.820312 175.503906 255.015625 177.203125 255.175781 C 178.902344 255.332031 180.605469 255.453125 182.3125 255.53125 C 184.015625 255.613281 185.722656 255.652344 187.429688 255.652344 C 189.136719 255.652344 190.84375 255.613281 192.550781 255.53125 C 194.253906 255.453125 195.957031 255.332031 197.65625 255.175781 C 199.359375 255.015625 201.054688 254.820312 202.742188 254.582031 C 204.433594 254.34375 206.117188 254.066406 207.796875 253.753906 C 209.472656 253.4375 211.144531 253.082031 212.804688 252.691406 C 214.46875 252.296875 216.117188 251.863281 217.757812 251.394531 C 219.402344 250.925781 221.03125 250.417969 222.648438 249.871094 C 224.265625 249.324219 225.871094 248.742188 227.460938 248.121094 C 229.050781 247.503906 230.628906 246.847656 232.1875 246.152344 C 233.746094 245.460938 235.292969 244.730469 236.816406 243.964844 C 238.34375 243.199219 239.851562 242.398438 241.339844 241.5625 C 242.828125 240.730469 244.296875 239.859375 245.746094 238.957031 C 247.195312 238.050781 248.621094 237.117188 250.027344 236.144531 C 251.433594 235.175781 252.816406 234.175781 254.175781 233.140625 C 255.53125 232.105469 256.867188 231.039062 258.175781 229.945312 C 259.484375 228.847656 260.769531 227.722656 262.023438 226.566406 Z M 112.835938 226.566406 "/><path style=" stroke:none;fill-rule:nonzero;fill:#d98d30;fill-opacity:1;" d="M 84.988281 186.179688 C 87.746094 193.101562 91.171875 199.675781 95.261719 205.902344 C 99.355469 212.132812 104.03125 217.882812 109.289062 223.160156 L 265.582031 223.160156 C 270.839844 217.882812 275.515625 212.132812 279.609375 205.902344 C 283.699219 199.675781 287.125 193.101562 289.882812 186.179688 Z M 84.988281 186.179688 "/><path style=" stroke:none;fill-rule:nonzero;fill:#bf372a;fill-opacity:1;" d="M 86.054688 101.996094 L 288.820312 101.996094 C 285.820312 95.003906 282.140625 88.394531 277.777344 82.164062 C 273.414062 75.9375 268.460938 70.21875 262.914062 65.015625 L 111.957031 65.015625 C 106.410156 70.21875 101.457031 75.9375 97.09375 82.164062 C 92.730469 88.394531 89.050781 95.003906 86.054688 101.996094 Z M 86.054688 101.996094 "/><path style=" stroke:none;fill-rule:nonzero;fill:#bf372a;fill-opacity:1;" d="M 259.113281 61.597656 C 257.878906 60.539062 256.621094 59.511719 255.339844 58.507812 C 254.058594 57.507812 252.757812 56.535156 251.433594 55.589844 C 250.109375 54.644531 248.765625 53.730469 247.398438 52.847656 C 246.035156 51.960938 244.652344 51.109375 243.25 50.285156 C 241.847656 49.460938 240.425781 48.667969 238.988281 47.910156 C 237.554688 47.148438 236.097656 46.417969 234.628906 45.722656 C 233.160156 45.027344 231.675781 44.363281 230.175781 43.734375 C 228.679688 43.101562 227.167969 42.503906 225.640625 41.941406 C 224.117188 41.378906 222.578125 40.847656 221.03125 40.351562 C 219.480469 39.855469 217.921875 39.394531 216.351562 38.96875 C 214.785156 38.542969 213.207031 38.152344 211.621094 37.792969 C 210.03125 37.4375 208.4375 37.117188 206.839844 36.828125 C 205.238281 36.542969 203.632812 36.292969 202.019531 36.078125 C 200.40625 35.863281 198.792969 35.683594 197.171875 35.539062 C 195.554688 35.394531 193.929688 35.285156 192.304688 35.214844 C 190.683594 35.144531 189.054688 35.105469 187.429688 35.105469 C 185.804688 35.105469 184.179688 35.144531 182.554688 35.214844 C 180.929688 35.285156 179.308594 35.394531 177.6875 35.539062 C 176.066406 35.683594 174.453125 35.863281 172.839844 36.078125 C 171.230469 36.292969 169.621094 36.542969 168.023438 36.828125 C 166.421875 37.117188 164.828125 37.4375 163.242188 37.792969 C 161.65625 38.152344 160.078125 38.542969 158.507812 38.96875 C 156.9375 39.394531 155.378906 39.855469 153.832031 40.351562 C 152.28125 40.847656 150.746094 41.378906 149.21875 41.941406 C 147.695312 42.503906 146.183594 43.101562 144.683594 43.734375 C 143.183594 44.363281 141.699219 45.027344 140.230469 45.722656 C 138.761719 46.417969 137.308594 47.148438 135.871094 47.910156 C 134.433594 48.667969 133.011719 49.460938 131.609375 50.285156 C 130.207031 51.109375 128.824219 51.960938 127.460938 52.847656 C 126.097656 53.730469 124.753906 54.644531 123.429688 55.589844 C 122.105469 56.535156 120.800781 57.507812 119.519531 58.507812 C 118.238281 59.511719 116.980469 60.539062 115.746094 61.597656 Z M 259.113281 61.597656 "/><g clip-rule="nonzero" clip-path="url(#fbd35f7292)"><path style=" stroke:none;fill-rule:nonzero;fill:#263940;fill-opacity:1;" d="M 330.640625 161.355469 L 291.285156 161.355469 C 289.707031 160.675781 288.867188 159.0625 290.28125 158.246094 C 290.917969 157.878906 291.851562 157.800781 292.707031 157.746094 C 295.320312 157.566406 297.925781 157.445312 300.535156 157.378906 C 299.679688 156.613281 298.441406 156.101562 297.21875 155.625 C 294.078125 154.347656 290.933594 153.074219 287.78125 151.796875 C 292.011719 150.972656 296.253906 150.90625 300.503906 151.605469 L 291.871094 147.542969 C 294.027344 148.058594 296.675781 147.472656 297.898438 146.199219 L 291.257812 145.179688 L 293.089844 144.054688 C 291.695312 144.273438 290.371094 144.058594 289.113281 143.414062 L 294.71875 141.910156 C 292.34375 141.964844 289.75 141.554688 288.335938 140.289062 C 286.921875 139.027344 287.535156 136.839844 289.828125 136.460938 C 290.683594 136.3125 291.636719 136.433594 292.453125 136.203125 C 292.453125 136.203125 286.613281 133.992188 286.21875 132.390625 C 285.820312 130.785156 288.636719 129.113281 290.863281 129.835938 C 290.304688 128.832031 288.628906 128.152344 287.003906 128.300781 C 288.171875 128.207031 289.042969 127.34375 288.703125 126.601562 C 287.4375 126.65625 286.222656 126.441406 285.050781 125.964844 C 284.574219 125.570312 285.078125 124.988281 285.714844 124.714844 C 286.355469 124.445312 287.15625 124.296875 287.589844 123.898438 C 288.527344 123.03125 287.125 121.875 285.675781 121.402344 C 284.222656 120.925781 282.457031 120.492188 282.074219 119.460938 L 286.203125 119.1875 C 287.195312 118.167969 285.746094 116.878906 284.25 116.1875 C 282.75 115.492188 280.90625 114.71875 280.867188 113.511719 L 285.066406 113.074219 C 283.53125 112.152344 281.980469 111.242188 280.445312 110.316406 C 280.039062 110.101562 279.660156 109.839844 279.316406 109.53125 C 278.773438 109 278.625 108.347656 278.476562 107.710938 C 277.730469 104.339844 276.980469 100.972656 276.222656 97.605469 C 276.035156 101.328125 274.890625 106.269531 269.917969 108.0625 L 272.472656 108.808594 C 271.929688 109.964844 270.734375 110.984375 269.160156 111.609375 C 270.4375 111.757812 271.519531 112.410156 271.875 113.222656 C 269.871094 114.378906 267.734375 115.183594 265.464844 115.628906 C 266.851562 116.03125 268.152344 116.628906 269.363281 117.421875 C 268.640625 117.992188 268.40625 118.890625 265.410156 119.539062 C 266.496094 119.960938 268.917969 120.234375 270.574219 120.597656 C 270.515625 120.679688 270.464844 120.765625 270.421875 120.859375 C 267.3125 120.886719 265.152344 122.351562 262.722656 123.941406 C 264.144531 123.898438 266.6875 123.65625 266.835938 124.578125 C 266.984375 125.5 262.722656 125.710938 261.609375 126.847656 C 262.367188 126.738281 264.160156 127.226562 265.203125 127.746094 C 265.851562 127.460938 266.519531 127.257812 267.214844 127.136719 C 267.773438 127.011719 268.371094 126.914062 268.984375 126.835938 C 269.5 126.738281 270.015625 126.738281 270.53125 126.835938 C 270.511719 126.96875 270.503906 127.097656 270.503906 127.230469 C 270.40625 127.257812 270.3125 127.296875 270.207031 127.324219 C 269.808594 127.40625 269.335938 127.433594 268.914062 127.515625 C 268.316406 127.582031 267.785156 127.804688 267.316406 128.179688 C 267.074219 128.429688 266.910156 128.722656 266.828125 129.0625 C 266.761719 129.210938 266.746094 129.367188 266.773438 129.527344 C 266.84375 129.730469 267.09375 129.929688 267.210938 130.136719 C 267.324219 130.339844 267.347656 130.585938 266.980469 130.75 C 266.183594 130.257812 265.460938 129.675781 264.804688 129.007812 C 262.890625 129.742188 259.957031 130.800781 258.597656 132.417969 C 258.917969 132.214844 263.011719 129.605469 262.769531 133.179688 C 262.289062 133.277344 261.824219 133.417969 261.367188 133.601562 L 254.984375 132.644531 L 257.269531 131.234375 C 255.53125 131.515625 253.878906 131.253906 252.3125 130.457031 C 254.632812 129.847656 256.953125 129.222656 259.265625 128.597656 C 256.328125 128.652344 253.113281 128.152344 251.359375 126.597656 C 249.609375 125.046875 250.367188 122.308594 253.222656 121.835938 C 254.28125 121.65625 255.453125 121.792969 256.453125 121.515625 C 256.453125 121.515625 249.230469 118.769531 248.738281 116.777344 C 248.246094 114.78125 251.726562 112.714844 254.480469 113.609375 C 253.800781 112.375 251.707031 111.53125 249.714844 111.695312 C 251.152344 111.585938 252.238281 110.5 251.816406 109.589844 C 250.246094 109.652344 248.734375 109.382812 247.28125 108.773438 C 246.683594 108.300781 247.324219 107.566406 248.113281 107.226562 C 248.898438 106.890625 249.890625 106.710938 250.433594 106.210938 C 251.601562 105.148438 249.863281 103.722656 248.082031 103.125 C 246.300781 102.53125 244.078125 101.984375 243.613281 100.707031 L 248.722656 100.386719 C 249.957031 99.113281 248.164062 97.515625 246.304688 96.652344 C 244.445312 95.792969 242.15625 94.847656 242.109375 93.355469 L 247.308594 92.796875 C 245.394531 91.667969 243.480469 90.527344 241.566406 89.386719 C 241.0625 89.121094 240.597656 88.792969 240.175781 88.40625 C 239.5 87.769531 239.308594 86.941406 239.132812 86.15625 C 238.207031 81.96875 237.273438 77.800781 236.335938 73.617188 C 236.105469 78.25 234.679688 84.359375 228.511719 86.589844 L 231.664062 87.511719 C 231.023438 88.9375 229.519531 90.203125 227.5625 90.976562 C 229.136719 91.164062 230.496094 91.980469 230.945312 92.988281 C 228.457031 94.421875 225.804688 95.414062 222.984375 95.960938 C 224.710938 96.460938 226.320312 97.207031 227.820312 98.195312 C 226.921875 98.902344 226.625 100.003906 222.914062 100.816406 C 224.261719 101.332031 227.261719 101.6875 229.296875 102.132812 C 229.226562 102.234375 229.164062 102.34375 229.105469 102.453125 C 225.25 102.496094 222.574219 104.3125 219.558594 106.28125 C 221.324219 106.242188 224.488281 105.941406 224.664062 107.097656 L 224.664062 107.136719 C 222.015625 107.144531 219.382812 107.328125 216.757812 107.679688 C 214.652344 107.300781 212.738281 106.609375 211.449219 105.464844 C 209.179688 103.441406 210.171875 99.898438 213.863281 99.273438 C 215.238281 99.042969 216.757812 99.234375 218.078125 98.878906 C 218.078125 98.878906 208.679688 95.308594 208.039062 92.710938 C 207.402344 90.117188 211.9375 87.457031 215.507812 88.613281 C 214.628906 86.996094 211.90625 85.910156 209.316406 86.136719 C 211.191406 85.992188 212.585938 84.589844 212.046875 83.410156 C 210.003906 83.484375 208.039062 83.132812 206.152344 82.351562 C 205.390625 81.710938 206.203125 80.773438 207.234375 80.339844 C 208.265625 79.90625 209.546875 79.675781 210.25 79.023438 C 211.761719 77.636719 209.503906 75.777344 207.199219 75.003906 C 204.890625 74.230469 201.996094 73.535156 201.382812 71.878906 L 208.023438 71.445312 C 209.621094 69.8125 207.304688 67.738281 204.898438 66.609375 C 202.492188 65.484375 199.507812 64.257812 199.425781 62.304688 L 206.203125 61.597656 C 203.71875 60.117188 201.234375 58.652344 198.761719 57.167969 C 198.105469 56.816406 197.5 56.390625 196.945312 55.894531 C 196.070312 55.039062 195.828125 53.976562 195.597656 52.957031 C 194.386719 47.539062 193.175781 42.113281 191.972656 36.679688 C 191.652344 42.683594 189.8125 50.628906 181.8125 53.507812 L 185.902344 54.71875 C 185.042969 56.578125 183.101562 58.230469 180.5625 59.226562 C 182.597656 59.472656 184.390625 60.503906 184.949219 61.824219 C 181.738281 63.699219 178.308594 65.003906 174.664062 65.742188 C 176.902344 66.378906 178.992188 67.339844 180.9375 68.613281 C 179.769531 69.539062 179.390625 70.964844 174.585938 72.011719 C 176.320312 72.691406 180.21875 73.152344 182.882812 73.71875 C 182.792969 73.851562 182.710938 73.988281 182.636719 74.128906 C 177.625 74.195312 174.164062 76.5625 170.226562 79.101562 C 172.519531 79.046875 176.632812 78.652344 176.867188 80.160156 C 177.097656 81.671875 170.226562 81.96875 168.445312 83.8125 C 169.652344 83.625 172.53125 84.425781 174.230469 85.253906 C 175.269531 84.804688 176.347656 84.46875 177.464844 84.253906 C 178.371094 84.074219 179.335938 83.910156 180.316406 83.777344 C 181.128906 83.667969 182.230469 83.601562 182.816406 83.777344 C 182.785156 83.992188 182.773438 84.199219 182.761719 84.414062 C 182.605469 84.476562 182.449219 84.527344 182.285156 84.566406 C 181.648438 84.714844 180.898438 84.757812 180.21875 84.882812 C 178.996094 85.089844 178.125 85.523438 177.652344 85.96875 C 177.253906 86.367188 176.984375 86.835938 176.851562 87.382812 C 176.757812 87.621094 176.730469 87.863281 176.769531 88.117188 C 176.878906 88.457031 177.269531 88.78125 177.476562 89.105469 C 177.679688 89.433594 177.691406 89.828125 177.097656 90.097656 C 175.8125 89.308594 174.648438 88.375 173.605469 87.289062 C 170.507812 88.484375 165.808594 90.160156 163.609375 92.789062 C 164.125 92.46875 170.726562 88.238281 170.3125 94 C 165.777344 94.933594 163.289062 97.828125 159.230469 99.742188 C 163.128906 101.128906 162.707031 101.886719 167 102.617188 C 160.296875 104.476562 159.214844 105.699219 154.3125 109.226562 C 157.601562 107.738281 161.035156 106.773438 164.621094 106.335938 C 168.382812 105.832031 172.648438 105.996094 174.578125 108.183594 C 171.128906 110.167969 169.550781 110.546875 165.125 109.757812 C 162.921875 110.695312 160.546875 111.566406 158.496094 112.488281 C 157.378906 111.855469 156.175781 111.597656 154.894531 111.714844 C 156.335938 111.605469 157.425781 110.519531 157.003906 109.609375 C 155.429688 109.679688 153.914062 109.410156 152.457031 108.808594 C 151.859375 108.332031 152.5 107.597656 153.289062 107.257812 C 154.074219 106.921875 155.066406 106.742188 155.609375 106.242188 C 156.78125 105.183594 155.039062 103.753906 153.257812 103.160156 C 151.476562 102.5625 149.253906 102.015625 148.792969 100.738281 L 153.898438 100.421875 C 155.136719 99.144531 153.34375 97.546875 151.480469 96.6875 C 149.621094 95.824219 147.332031 94.878906 147.285156 93.386719 L 152.5 92.828125 C 150.585938 91.699219 148.667969 90.558594 146.753906 89.417969 C 146.25 89.152344 145.789062 88.828125 145.371094 88.441406 C 144.703125 87.800781 144.5 86.976562 144.335938 86.1875 C 143.402344 82.003906 142.460938 77.835938 141.523438 73.652344 C 141.292969 78.28125 139.867188 84.394531 133.703125 86.621094 L 136.851562 87.542969 C 136.214844 88.96875 134.707031 90.234375 132.75 91.007812 C 134.328125 91.195312 135.683594 92.015625 136.132812 93.019531 C 133.65625 94.449219 131.011719 95.4375 128.203125 95.988281 C 129.929688 96.488281 131.539062 97.230469 133.039062 98.222656 C 132.140625 98.925781 131.839844 100.027344 128.136719 100.839844 C 129.480469 101.359375 132.480469 101.710938 134.519531 102.160156 C 134.449219 102.261719 134.382812 102.367188 134.328125 102.480469 C 130.472656 102.519531 127.8125 104.339844 124.78125 106.308594 C 126.546875 106.265625 129.710938 105.96875 129.886719 107.121094 C 130.066406 108.277344 124.78125 108.519531 123.394531 109.933594 C 124.332031 109.800781 126.558594 110.410156 127.863281 111.046875 C 128.660156 110.703125 129.488281 110.449219 130.34375 110.289062 C 131.054688 110.152344 131.789062 110.03125 132.546875 109.921875 C 133.183594 109.839844 134.015625 109.785156 134.460938 109.921875 C 134.460938 110.082031 134.433594 110.238281 134.433594 110.410156 C 134.308594 110.457031 134.183594 110.492188 134.054688 110.519531 C 133.578125 110.640625 132.992188 110.667969 132.457031 110.761719 C 131.71875 110.851562 131.0625 111.132812 130.488281 111.605469 C 130.171875 111.90625 129.96875 112.265625 129.878906 112.691406 C 129.792969 112.875 129.769531 113.066406 129.8125 113.261719 C 129.890625 113.519531 130.191406 113.761719 130.355469 114.023438 C 130.515625 114.28125 130.515625 114.566406 130.054688 114.769531 C 129.0625 114.171875 128.167969 113.457031 127.363281 112.625 C 124.972656 113.535156 121.347656 114.839844 119.648438 116.863281 C 119.648438 116.863281 125.164062 113.167969 124.839844 117.785156 C 121.347656 118.507812 119.433594 120.734375 116.308594 122.214844 C 119.3125 123.273438 118.96875 123.871094 122.285156 124.414062 C 119.269531 125.257812 117.722656 125.9375 116.222656 126.886719 C 116.214844 126.792969 116.191406 126.699219 116.15625 126.613281 C 114.886719 126.664062 113.664062 126.453125 112.488281 125.972656 C 112.011719 125.582031 112.53125 124.996094 113.167969 124.726562 C 113.808594 124.453125 114.59375 124.304688 115.042969 123.910156 C 115.980469 123.042969 114.566406 121.886719 113.125 121.410156 C 111.6875 120.933594 109.894531 120.5 109.515625 119.46875 L 113.644531 119.199219 C 114.636719 118.175781 113.195312 116.886719 111.703125 116.195312 C 110.210938 115.503906 108.363281 114.726562 108.308594 113.519531 L 112.515625 113.082031 C 110.96875 112.160156 109.433594 111.25 107.886719 110.328125 C 107.480469 110.109375 107.101562 109.847656 106.757812 109.542969 C 106.292969 109.019531 106.015625 108.414062 105.929688 107.71875 C 105.183594 104.351562 104.421875 100.984375 103.675781 97.613281 C 103.484375 101.335938 102.332031 106.28125 97.359375 108.074219 L 99.910156 108.820312 C 99.382812 109.976562 98.171875 110.992188 96.597656 111.617188 C 97.875 111.769531 98.976562 112.421875 99.328125 113.234375 C 97.320312 114.386719 95.183594 115.191406 92.914062 115.640625 C 94.304688 116.042969 95.605469 116.636719 96.816406 117.429688 C 96.082031 118 95.859375 118.898438 92.863281 119.550781 C 93.949219 119.972656 96.371094 120.242188 98.007812 120.609375 C 98.007812 120.609375 97.863281 120.855469 97.863281 120.867188 C 94.761719 120.894531 92.605469 122.359375 90.160156 123.949219 C 91.585938 123.910156 94.136719 123.667969 94.289062 124.589844 C 94.4375 125.511719 90.160156 125.71875 89.046875 126.859375 C 89.808594 126.75 91.601562 127.238281 92.644531 127.753906 C 93.289062 127.472656 93.960938 127.269531 94.65625 127.144531 C 95.226562 127.019531 95.824219 126.925781 96.417969 126.84375 C 96.9375 126.75 97.453125 126.75 97.972656 126.84375 C 97.972656 126.964844 97.972656 127.105469 97.941406 127.242188 C 97.84375 127.277344 97.742188 127.308594 97.640625 127.332031 C 97.261719 127.417969 96.785156 127.441406 96.367188 127.523438 C 95.773438 127.597656 95.238281 127.820312 94.769531 128.1875 C 94.527344 128.4375 94.363281 128.734375 94.28125 129.074219 C 94.222656 129.222656 94.203125 129.375 94.226562 129.535156 C 94.292969 129.738281 94.546875 129.941406 94.675781 130.144531 C 94.800781 130.347656 94.796875 130.59375 94.429688 130.757812 C 93.636719 130.265625 92.910156 129.6875 92.257812 129.019531 C 90.34375 129.753906 87.421875 130.8125 86.0625 132.425781 C 86.382812 132.222656 90.476562 129.617188 90.210938 133.191406 C 87.402344 133.773438 85.851562 135.550781 83.339844 136.75 C 85.757812 137.601562 85.484375 138.089844 88.160156 138.527344 C 84.011719 139.695312 83.324219 140.441406 80.285156 142.625 C 82.320312 141.707031 84.449219 141.113281 86.667969 140.847656 C 89.003906 140.53125 91.652344 140.632812 92.84375 141.988281 C 90.699219 143.226562 89.722656 143.457031 86.980469 142.96875 C 84.304688 144.109375 81.195312 145.085938 80.050781 146.480469 C 81.4375 146.4375 84.425781 145.679688 85.648438 146.125 C 86.871094 146.570312 86.042969 147.199219 85.308594 147.972656 C 84.277344 149.097656 80.199219 150.703125 80.199219 150.703125 C 81.796875 151.382812 82.753906 151.433594 83.828125 151.640625 C 84.898438 151.84375 86.136719 152.566406 85.539062 153.203125 C 81.964844 153.023438 78.300781 154.042969 75.964844 155.835938 C 78.023438 155.589844 79.984375 155.914062 81.847656 156.816406 C 81.988281 156.867188 82.097656 156.953125 82.179688 157.082031 C 82.261719 157.207031 82.292969 157.34375 82.28125 157.492188 C 82.148438 158.0625 81.019531 158.105469 80.179688 158.128906 C 78.003906 158.148438 75.875 158.839844 74.527344 159.964844 C 77.230469 159.09375 80.734375 159.789062 82.503906 161.351562 L 44.359375 161.351562 C 43.910156 161.351562 43.46875 161.394531 43.03125 161.480469 C 42.59375 161.570312 42.167969 161.699219 41.757812 161.867188 C 41.34375 162.039062 40.953125 162.25 40.582031 162.496094 C 40.210938 162.746094 39.867188 163.027344 39.554688 163.34375 C 39.238281 163.65625 38.957031 164 38.707031 164.371094 C 38.460938 164.742188 38.253906 165.136719 38.082031 165.546875 C 37.910156 165.960938 37.78125 166.386719 37.695312 166.824219 C 37.609375 167.261719 37.566406 167.703125 37.566406 168.148438 L 37.566406 239.453125 C 37.566406 239.902344 37.609375 240.34375 37.699219 240.78125 C 37.785156 241.214844 37.914062 241.640625 38.085938 242.054688 C 38.253906 242.464844 38.464844 242.855469 38.710938 243.226562 C 38.960938 243.597656 39.242188 243.941406 39.558594 244.257812 C 39.871094 244.570312 40.214844 244.851562 40.585938 245.101562 C 40.957031 245.347656 41.347656 245.558594 41.757812 245.726562 C 42.171875 245.898438 42.597656 246.027344 43.035156 246.113281 C 43.46875 246.203125 43.914062 246.246094 44.359375 246.246094 L 67.050781 246.246094 L 67.050781 280.566406 C 67.054688 281.757812 67.207031 282.929688 67.515625 284.082031 C 67.824219 285.234375 68.277344 286.324219 68.875 287.359375 C 69.46875 288.390625 70.191406 289.328125 71.03125 290.171875 C 71.875 291.015625 72.8125 291.738281 73.84375 292.332031 L 180.707031 354.023438 C 181.742188 354.621094 182.832031 355.074219 183.984375 355.382812 C 185.136719 355.691406 186.308594 355.84375 187.5 355.84375 C 188.691406 355.84375 189.863281 355.691406 191.015625 355.382812 C 192.167969 355.074219 193.257812 354.621094 194.292969 354.023438 L 301.15625 292.332031 C 302.1875 291.738281 303.125 291.015625 303.964844 290.171875 C 304.808594 289.328125 305.527344 288.390625 306.125 287.359375 C 306.71875 286.328125 307.171875 285.234375 307.480469 284.085938 C 307.789062 282.933594 307.945312 281.761719 307.945312 280.570312 L 307.945312 246.246094 L 330.640625 246.246094 C 331.085938 246.246094 331.53125 246.203125 331.964844 246.113281 C 332.402344 246.027344 332.828125 245.898438 333.242188 245.726562 C 333.652344 245.558594 334.042969 245.347656 334.414062 245.101562 C 334.785156 244.851562 335.128906 244.570312 335.441406 244.257812 C 335.757812 243.941406 336.039062 243.597656 336.289062 243.226562 C 336.535156 242.855469 336.746094 242.464844 336.914062 242.054688 C 337.085938 241.640625 337.214844 241.214844 337.300781 240.78125 C 337.390625 240.34375 337.433594 239.902344 337.433594 239.453125 L 337.433594 168.148438 C 337.433594 167.703125 337.390625 167.261719 337.304688 166.824219 C 337.214844 166.386719 337.085938 165.960938 336.917969 165.550781 C 336.746094 165.136719 336.535156 164.746094 336.289062 164.375 C 336.039062 164.003906 335.757812 163.660156 335.445312 163.347656 C 335.128906 163.03125 334.785156 162.75 334.414062 162.5 C 334.042969 162.253906 333.652344 162.042969 333.242188 161.875 C 332.828125 161.703125 332.402344 161.574219 331.96875 161.488281 C 331.53125 161.402344 331.089844 161.355469 330.640625 161.355469 Z M 294.363281 272.714844 C 294.363281 273.90625 294.207031 275.078125 293.898438 276.230469 C 293.589844 277.382812 293.136719 278.472656 292.542969 279.503906 C 291.945312 280.539062 291.226562 281.476562 290.386719 282.320312 C 289.542969 283.164062 288.605469 283.882812 287.574219 284.480469 L 194.292969 338.332031 C 193.257812 338.929688 192.167969 339.382812 191.015625 339.691406 C 189.863281 340 188.691406 340.15625 187.5 340.15625 C 186.308594 340.15625 185.136719 340 183.984375 339.691406 C 182.832031 339.382812 181.742188 338.929688 180.707031 338.332031 L 87.425781 284.480469 C 86.394531 283.882812 85.460938 283.160156 84.621094 282.316406 C 83.777344 281.472656 83.0625 280.535156 82.464844 279.503906 C 81.871094 278.472656 81.421875 277.378906 81.113281 276.230469 C 80.804688 275.078125 80.652344 273.90625 80.652344 272.714844 L 80.652344 246.246094 L 96.925781 246.246094 L 96.925781 263.292969 C 96.929688 264.484375 97.082031 265.65625 97.390625 266.804688 C 97.703125 267.957031 98.152344 269.046875 98.75 270.082031 C 99.347656 271.113281 100.066406 272.050781 100.90625 272.894531 C 101.75 273.734375 102.6875 274.457031 103.71875 275.050781 L 180.707031 319.507812 C 181.742188 320.105469 182.832031 320.558594 183.984375 320.867188 C 185.136719 321.175781 186.308594 321.332031 187.5 321.332031 C 188.691406 321.332031 189.863281 321.175781 191.015625 320.867188 C 192.167969 320.558594 193.257812 320.105469 194.292969 319.507812 L 271.273438 275.066406 C 272.308594 274.46875 273.246094 273.746094 274.089844 272.902344 C 274.929688 272.058594 275.652344 271.121094 276.246094 270.085938 C 276.84375 269.054688 277.296875 267.960938 277.605469 266.808594 C 277.914062 265.65625 278.066406 264.484375 278.066406 263.292969 L 278.066406 246.246094 L 294.363281 246.246094 Z M 294.363281 272.714844 "/></g><path style=" stroke:none;fill-rule:nonzero;fill:#f4edcc;fill-opacity:1;" d="M 89.933594 161.140625 C 95.214844 160.792969 100.5 160.566406 105.78125 160.273438 C 111.0625 159.980469 116.34375 159.804688 121.625 159.632812 C 126.90625 159.464844 132.1875 158.882812 137.472656 159.199219 C 140.113281 159.324219 142.753906 159.542969 145.394531 159.839844 C 148.0625 160.117188 150.703125 160.554688 153.316406 161.148438 L 153.316406 161.582031 C 150.703125 162.171875 148.0625 162.609375 145.394531 162.890625 C 142.753906 163.1875 140.113281 163.410156 137.472656 163.527344 C 132.1875 163.847656 126.90625 163.28125 121.625 163.09375 C 116.34375 162.90625 111.0625 162.699219 105.78125 162.457031 C 100.5 162.210938 95.214844 161.933594 89.933594 161.585938 Z M 89.933594 161.140625 "/><path style=" stroke:none;fill-rule:nonzero;fill:#f4edcc;fill-opacity:1;" d="M 285.066406 161.574219 C 279.785156 161.917969 274.5 162.148438 269.21875 162.441406 C 263.9375 162.734375 258.65625 162.910156 253.375 163.082031 C 248.09375 163.25 242.8125 163.832031 237.527344 163.515625 C 234.886719 163.394531 232.242188 163.171875 229.605469 162.875 C 226.9375 162.597656 224.296875 162.160156 221.679688 161.566406 L 221.679688 161.132812 C 224.296875 160.542969 226.9375 160.105469 229.605469 159.824219 C 232.242188 159.527344 234.886719 159.304688 237.527344 159.1875 C 242.8125 158.867188 248.09375 159.433594 253.375 159.621094 C 258.65625 159.808594 263.9375 160.019531 269.21875 160.257812 C 274.5 160.5 279.785156 160.78125 285.066406 161.128906 Z M 285.066406 161.574219 "/><path style=" stroke:none;fill-rule:nonzero;fill:#f4edcc;fill-opacity:1;" d="M 264.890625 246.324219 C 258.4375 246.847656 251.988281 247.074219 245.542969 247.457031 L 226.191406 248.09375 C 219.746094 248.355469 213.296875 248.367188 206.847656 248.503906 L 187.5 248.625 C 174.601562 248.566406 161.703125 248.507812 148.804688 248.085938 L 129.457031 247.445312 C 123.007812 247.066406 116.5625 246.839844 110.109375 246.320312 L 110.109375 246.058594 L 187.5 245.921875 L 264.890625 246.058594 Z M 264.890625 246.324219 "/><g clip-rule="nonzero" clip-path="url(#149c6a61ac)"><g clip-rule="nonzero" clip-path="url(#e6c998f700)"><g transform="matrix(1,0,0,1,45,168)"><g clip-path="url(#2d14ea0c1b)"><g clip-rule="nonzero" clip-path="url(#ab7d629987)"><g clip-rule="nonzero" clip-path="url(#918fa15d38)"><path style=" stroke:none;fill-rule:nonzero;fill:#f4edcc;fill-opacity:1;" d="M 0.160156 0.53125 L 284.785156 0.53125 L 284.785156 70.863281 L 0.160156 70.863281 Z M 0.160156 0.53125 "/></g></g></g></g></g></g><path style="fill:none;stroke-width:3;stroke-linecap:round;stroke-linejoin:miter;stroke:#f4edcc;stroke-opacity:1;stroke-miterlimit:4;" d="M 1.50071 1.502316 L 112.781967 1.502316 " transform="matrix(0.75,0,0,0.75,144.643999,278.396701)"/><g clip-rule="nonzero" clip-path="url(#63ca2fdd96)"><path style=" stroke:none;fill-rule:nonzero;fill:#4a9f71;fill-opacity:1;" d="M 161.0625 166.199219 C 159.464844 166.195312 157.960938 166.234375 156.460938 166.175781 C 155.160156 166.125 153.863281 165.960938 152.558594 165.855469 C 151.441406 165.765625 150.3125 165.714844 149.207031 165.851562 C 147.996094 166.007812 146.789062 165.972656 145.578125 165.992188 C 144.914062 166.007812 144.515625 165.675781 144.558594 165.019531 C 144.652344 163.488281 144.417969 161.964844 144.675781 160.433594 C 144.832031 159.496094 144.738281 158.519531 144.765625 157.5625 C 144.832031 155.269531 144.832031 152.976562 145.097656 150.691406 C 145.132812 150.375 145.121094 150.054688 145.109375 149.734375 C 144.984375 146.828125 145.242188 143.925781 145.363281 141.03125 C 145.449219 138.992188 145.410156 136.949219 145.554688 134.917969 C 145.625 133.96875 145.671875 133.015625 145.808594 132.066406 C 145.984375 130.808594 145.984375 129.523438 146.0625 128.25 C 146.070312 128.15625 146.074219 128.054688 146.046875 127.964844 C 145.78125 127.121094 145.898438 126.253906 145.886719 125.394531 C 145.882812 125.140625 145.902344 124.878906 145.972656 124.636719 C 146.292969 123.441406 146.046875 122.746094 144.722656 121.832031 C 144.386719 121.601562 143.988281 121.433594 143.59375 121.324219 C 143.003906 121.15625 142.574219 120.824219 142.253906 120.3125 C 141.882812 119.71875 141.511719 119.132812 141.203125 118.496094 C 140.867188 117.8125 140.527344 117.125 140.09375 116.488281 C 139.710938 115.914062 139.863281 115.082031 140.457031 114.824219 C 141.1875 114.507812 141.601562 113.8125 142.265625 113.453125 C 143.984375 112.53125 144.253906 110.738281 144.890625 109.160156 C 144.769531 108.152344 145.355469 107.164062 144.9375 106.140625 C 144.847656 105.921875 144.910156 105.632812 144.910156 105.378906 C 144.9375 103.65625 144.890625 101.9375 144.738281 100.214844 C 144.695312 99.71875 144.5 99.363281 144.152344 99.0625 C 143.609375 98.585938 143.214844 98.058594 143.144531 97.289062 C 143.113281 96.9375 142.792969 96.617188 142.667969 96.257812 C 142.394531 95.480469 142.089844 94.703125 142.222656 93.84375 C 142.269531 93.539062 142.121094 93.292969 141.964844 93.046875 C 141.664062 92.5625 141.605469 92.058594 141.742188 91.484375 C 141.910156 90.785156 142.007812 90.066406 141.871094 89.324219 C 141.746094 88.65625 141.847656 87.992188 142.199219 87.375 C 142.566406 86.746094 142.472656 86.175781 141.972656 85.628906 C 141.375 84.980469 141.15625 84.183594 141.308594 83.320312 C 141.546875 81.984375 141.5 80.660156 141.308594 79.320312 C 141.203125 78.566406 141.1875 77.792969 141.453125 77.046875 C 141.636719 76.523438 141.652344 75.988281 141.648438 75.441406 C 141.644531 74.417969 141.605469 73.390625 141.675781 72.375 C 141.761719 71.070312 141.382812 69.863281 141.050781 68.636719 C 140.753906 67.53125 140.5625 66.371094 140.035156 65.359375 C 139.644531 64.613281 139.320312 63.851562 139.207031 63.050781 C 139.070312 62.09375 138.8125 61.183594 138.511719 60.28125 C 138.417969 60.007812 138.304688 59.742188 138.203125 59.476562 C 137.984375 58.910156 137.792969 58.347656 137.972656 57.71875 C 138.039062 57.480469 138 57.207031 138.003906 56.953125 C 138.007812 54.746094 138.007812 52.542969 138.023438 50.335938 C 138.023438 49.757812 138 49.179688 137.78125 48.640625 C 137.503906 47.980469 137.648438 47.367188 138.007812 46.824219 C 138.523438 46.050781 138.652344 45.265625 138.324219 44.398438 C 137.917969 43.308594 137.78125 42.175781 137.8125 41.019531 C 137.820312 40.765625 137.804688 40.523438 137.691406 40.273438 C 137.238281 39.265625 137.242188 39.261719 137.527344 38.105469 C 137.738281 37.90625 138.007812 37.960938 138.253906 37.957031 C 140.332031 37.953125 142.417969 37.851562 144.484375 37.976562 C 147.292969 38.144531 150.109375 38.007812 152.90625 38.203125 C 155.273438 38.371094 157.628906 38.265625 159.992188 38.34375 C 161.046875 38.375 162.09375 38.433594 163.144531 38.476562 C 164.664062 38.539062 166.199219 38.660156 167.722656 38.417969 C 168.1875 38.34375 168.671875 38.40625 169.074219 38.40625 C 169.484375 37.953125 169.457031 37.5 169.46875 37.054688 C 169.535156 35.363281 169.382812 33.675781 169.3125 31.988281 C 169.304688 31.828125 169.289062 31.671875 169.296875 31.511719 C 169.335938 30.414062 169.679688 30.171875 170.671875 30.628906 C 171.097656 30.828125 171.445312 30.824219 171.847656 30.648438 C 172.207031 30.496094 172.578125 30.429688 172.964844 30.605469 C 173.535156 30.867188 174.039062 31.242188 174.710938 31.332031 C 175.203125 31.398438 175.269531 31.972656 175.304688 32.429688 C 175.367188 33.21875 175.363281 34.011719 175.46875 34.808594 C 175.574219 35.644531 175.792969 36.433594 176.097656 37.199219 C 176.777344 38.90625 177.027344 40.6875 177.058594 42.511719 C 177.0625 42.828125 177.046875 43.148438 177.046875 43.46875 C 177.046875 44.601562 177.382812 45.125 178.472656 45.40625 C 179.28125 45.617188 180.050781 45.992188 180.984375 45.722656 C 181.464844 45.582031 182.109375 45.746094 182.660156 45.8125 C 183.230469 45.882812 183.65625 46.351562 183.820312 46.878906 C 185.054688 47.09375 186.214844 47.292969 187.371094 47.496094 C 187.8125 47.574219 188.257812 47.582031 188.710938 47.582031 C 189.839844 47.585938 190.351562 48.054688 190.476562 49.15625 C 190.59375 50.1875 190.765625 50.332031 191.738281 50.128906 C 192.25 50.027344 192.757812 50.078125 193.269531 50.046875 C 194.132812 50 195.011719 49.972656 195.425781 48.992188 C 195.460938 48.914062 195.546875 48.816406 195.625 48.796875 C 196.609375 48.5 197.390625 47.78125 198.363281 47.457031 C 198.648438 47.363281 198.957031 47.277344 199.199219 47.410156 C 200.007812 47.867188 200.878906 47.742188 201.730469 47.738281 C 202.863281 47.722656 203.910156 47.800781 204.882812 48.5625 C 205.34375 48.921875 206.019531 49.097656 206.597656 49.347656 C 206.917969 49.488281 207.210938 49.410156 207.53125 49.371094 C 208.417969 49.273438 209.066406 49.769531 209.089844 50.503906 C 209.109375 51.175781 209.027344 51.289062 208.320312 51.484375 C 208.203125 51.519531 208.0625 51.496094 207.988281 51.714844 C 208.261719 52.121094 208.699219 51.972656 209.066406 51.925781 C 209.445312 51.878906 209.808594 51.75 210.199219 51.765625 C 210.632812 51.785156 210.933594 51.941406 211.007812 52.410156 C 211.054688 52.695312 211.210938 52.980469 211.179688 53.246094 C 211.078125 54.085938 211.464844 54.71875 211.929688 55.347656 C 212.285156 55.832031 212.625 56.332031 212.800781 56.886719 C 213.101562 56.933594 213.300781 56.835938 213.507812 56.6875 C 213.648438 56.378906 213.378906 56.101562 213.390625 55.785156 C 213.410156 55.105469 213.636719 54.554688 214.21875 54.417969 C 215.140625 54.203125 216.023438 53.800781 217.011719 53.890625 C 217.828125 53.964844 218.625 54.613281 218.644531 55.4375 C 218.660156 56.019531 218.945312 56.238281 219.421875 56.34375 C 219.640625 56.394531 219.882812 56.402344 220.050781 56.546875 C 220.734375 57.148438 221.523438 57.371094 222.433594 57.359375 C 223.007812 57.351562 223.230469 57.691406 223.277344 58.308594 C 223.296875 58.621094 223.222656 58.949219 223.378906 59.265625 C 223.730469 59.550781 224.164062 59.421875 224.566406 59.4375 C 225.363281 59.464844 225.363281 59.453125 225.59375 60.238281 C 225.617188 60.324219 225.675781 60.402344 225.746094 60.527344 C 226.304688 60.378906 226.871094 60.324219 227.421875 60.570312 C 227.449219 60.582031 227.484375 60.585938 227.515625 60.582031 C 228.511719 60.320312 229.636719 60.378906 230.386719 59.507812 C 230.9375 58.875 231.589844 58.363281 232.21875 57.824219 C 232.339844 57.722656 232.484375 57.566406 232.613281 57.570312 C 233.390625 57.589844 233.90625 57.070312 234.484375 56.691406 C 234.921875 56.40625 235.402344 56.242188 235.890625 56.101562 C 236.503906 55.921875 236.832031 56.109375 236.886719 56.734375 C 236.917969 57.15625 237.011719 57.453125 237.402344 57.664062 C 237.726562 57.839844 237.644531 58.230469 237.734375 58.527344 C 238.027344 59.515625 238.351562 59.621094 239.25 59.144531 C 239.914062 58.792969 240.640625 58.390625 241.226562 59.324219 C 241.332031 59.496094 241.585938 59.421875 241.769531 59.421875 C 243.394531 59.425781 245.015625 59.496094 246.628906 59.160156 C 247.398438 59 248.199219 59.039062 248.988281 59.335938 C 249.703125 59.605469 250.113281 60.007812 250.160156 60.769531 C 250.167969 60.855469 250.234375 60.941406 250.277344 61.042969 C 250.71875 61.277344 251.335938 61.027344 251.601562 61.601562 C 252.53125 60.863281 253.496094 60.851562 254.492188 60.941406 C 255.246094 61.011719 256.003906 61.039062 256.761719 61.070312 C 256.976562 61.078125 257.152344 61.117188 257.203125 61.34375 C 257.25 61.542969 257.171875 61.726562 256.976562 61.824219 C 256.808594 61.910156 256.628906 61.976562 256.449219 62.042969 C 256.007812 62.199219 255.523438 62.273438 255.410156 62.871094 C 255.382812 63.015625 255.152344 63.148438 254.988281 63.238281 C 254.070312 63.734375 253.320312 64.488281 252.28125 64.824219 C 251.570312 65.050781 250.953125 65.554688 250.300781 65.949219 C 249.664062 66.332031 249.007812 66.597656 248.246094 66.65625 C 247.207031 66.726562 246.296875 67.226562 245.410156 67.738281 C 244.492188 68.265625 243.503906 68.601562 242.519531 68.960938 C 241.949219 69.167969 241.382812 69.378906 240.972656 69.875 C 240.875 69.992188 240.738281 70.109375 240.597656 70.164062 C 239.058594 70.761719 237.742188 71.734375 236.515625 72.78125 C 235.613281 73.554688 234.519531 74.121094 233.8125 75.128906 C 233.707031 75.277344 233.523438 75.375 233.351562 75.460938 C 233.117188 75.582031 232.890625 75.757812 232.792969 75.96875 C 232.28125 77.117188 231.199219 77.824219 230.585938 78.90625 C 230.0625 79.832031 229.203125 80.484375 228.371094 81.128906 C 227.792969 81.578125 227.261719 82.046875 226.820312 82.664062 C 226.382812 83.277344 225.75 83.753906 225.207031 84.296875 C 225.113281 84.390625 225.007812 84.464844 224.878906 84.464844 C 224.367188 84.460938 224.015625 84.796875 223.78125 85.148438 C 223.152344 86.09375 222.082031 86.601562 221.480469 87.5625 C 220.28125 88.105469 219.761719 89.542969 218.40625 89.894531 C 218.246094 89.933594 218.171875 90.097656 218.070312 90.21875 C 217.621094 90.757812 217.15625 91.277344 216.546875 91.65625 C 216.25 91.839844 215.949219 92.101562 216 92.5 C 216.085938 93.144531 215.679688 93.417969 215.222656 93.675781 C 215.003906 93.796875 214.773438 93.90625 214.488281 94.050781 C 214.441406 95.082031 214.382812 96.132812 214.511719 97.171875 C 214.621094 98.035156 214.65625 98.878906 214.496094 99.738281 C 214.425781 100.109375 214.460938 100.503906 214.457031 100.886719 C 214.453125 102.734375 214.449219 104.578125 214.457031 106.425781 C 214.460938 107.394531 213.671875 107.882812 213.152344 108.523438 C 212.917969 108.808594 212.554688 108.527344 212.191406 108.476562 C 211.855469 109.019531 211.378906 109.398438 210.683594 109.425781 C 210.625 109.429688 210.539062 109.449219 210.511719 109.492188 C 209.96875 110.375 208.867188 110.425781 208.152344 111.066406 C 207.882812 111.308594 207.605469 111.527344 207.53125 111.878906 C 207.351562 112.703125 206.777344 113.351562 206.542969 114.148438 C 206.464844 114.425781 206.316406 114.683594 206 114.769531 C 205.804688 114.828125 205.675781 114.957031 205.554688 115.113281 C 205.355469 115.378906 204.851562 117.113281 204.855469 117.449219 C 204.855469 117.882812 205.070312 118.121094 205.484375 118.121094 C 206.070312 118.125 206.59375 118.425781 207.15625 118.335938 C 207.476562 118.824219 207.753906 119.25 207.742188 119.792969 C 207.734375 120.167969 208.042969 120.328125 208.265625 120.546875 C 209.09375 121.34375 209.078125 122.25 208.410156 123.183594 C 207.789062 124.058594 207.132812 124.933594 207.117188 126.136719 C 207.109375 126.738281 207.03125 127.296875 207.292969 127.871094 C 207.441406 128.195312 207.308594 128.558594 207.199219 128.898438 C 207.042969 129.386719 206.875 129.863281 206.554688 130.335938 C 206.902344 130.835938 207.042969 131.410156 206.972656 132.023438 C 206.949219 132.21875 207.003906 132.398438 207.128906 132.5625 C 207.421875 132.933594 207.417969 133.339844 207.171875 133.71875 C 206.980469 134.011719 206.964844 134.316406 206.972656 134.632812 C 206.992188 135.304688 206.953125 135.933594 206.53125 136.539062 C 206.117188 137.132812 206.34375 137.492188 206.992188 137.910156 C 207.90625 138.492188 208.628906 139.257812 209.179688 140.210938 C 209.621094 140.960938 210.25 141.566406 211.21875 141.519531 C 212.085938 141.480469 212.929688 141.640625 213.785156 141.722656 C 214.417969 141.785156 214.539062 142.265625 214.628906 142.726562 C 214.804688 143.617188 215.328125 144.199219 216.09375 144.625 C 216.265625 144.722656 216.4375 144.789062 216.625 144.8125 C 217.425781 144.925781 218.128906 145.269531 218.824219 145.660156 C 219.777344 146.195312 220.636719 146.757812 221.027344 147.894531 C 221.203125 148.410156 221.585938 148.835938 221.617188 149.453125 C 221.636719 149.804688 221.917969 150.144531 222.285156 150.335938 C 223.5 150.957031 224.394531 151.9375 225.210938 152.988281 C 225.460938 153.308594 225.714844 153.5625 226.121094 153.617188 C 226.722656 153.691406 227.269531 153.992188 227.886719 154.03125 C 228.40625 154.0625 228.667969 154.554688 229.039062 154.847656 C 229.773438 155.421875 230.628906 155.929688 230.746094 157.011719 C 230.765625 157.210938 230.929688 157.339844 231.042969 157.492188 C 231.890625 158.644531 232.625 159.808594 232.121094 161.363281 C 231.933594 161.953125 231.976562 162.570312 232.210938 163.214844 C 232.507812 164.039062 232.582031 164.945312 232.75 165.820312 C 232.820312 166.210938 232.757812 166.511719 232.269531 166.566406 C 230.203125 166.804688 228.136719 166.835938 226.066406 166.617188 C 225.75 166.582031 225.429688 166.578125 225.109375 166.578125 C 223.125 166.574219 221.140625 166.503906 219.164062 166.589844 C 212.554688 166.867188 205.9375 166.886719 199.328125 166.71875 C 191.019531 166.507812 182.714844 166.699219 174.410156 166.550781 C 172.753906 166.519531 171.101562 166.339844 169.441406 166.382812 C 168.644531 166.40625 167.851562 166.339844 167.054688 166.515625 C 166.660156 166.601562 166.210938 166.597656 165.816406 166.507812 C 165.179688 166.363281 164.542969 166.351562 163.910156 166.386719 C 162.984375 166.4375 162.078125 166.21875 161.0625 166.199219 Z M 161.0625 166.199219 "/></g><g style="fill:#263940;fill-opacity:1;"><g transform="translate(58.804161, 205.963052)"><path style="stroke:none" d="M 30.953125 0 L 23.921875 0 L 23.71875 -7.84375 L 23.28125 -14.359375 L 22.796875 -14.359375 L 18.640625 -2.4375 L 12.59375 -2.4375 L 9.15625 -14.359375 L 8.6875 -14.359375 L 8.125 -8.59375 L 7.71875 0 L 1.046875 0 L 3.5625 -25.875 L 12.796875 -25.875 L 13.5625 -22.203125 L 15.84375 -12.796875 L 16.3125 -12.796875 L 18.84375 -21.921875 L 19.765625 -25.875 L 28.875 -25.875 Z M 30.953125 0 "/></g></g><g style="fill:#263940;fill-opacity:1;"><g transform="translate(93.040944, 205.963052)"><path style="stroke:none" d="M 10.125 -8.40625 L 10.4375 0 L 2.40625 0 L 2.796875 -7.59375 L 2.40625 -25.875 L 10.5625 -25.875 Z M 10.125 -8.40625 "/></g></g><g style="fill:#263940;fill-opacity:1;"><g transform="translate(108.119633, 205.963052)"><path style="stroke:none" d="M 25.5625 -8.4375 L 25.875 0 L 17.15625 0 L 9.875 -13.84375 L 9.40625 -13.84375 L 9.359375 -9.359375 L 9.6875 0 L 2.40625 0 L 2.796875 -7.59375 L 2.40625 -25.875 L 11.125 -25.875 L 18.40625 -12.046875 L 18.875 -12.046875 L 18.640625 -25.59375 L 26 -26.046875 Z M 25.5625 -8.4375 "/></g></g><g style="fill:#263940;fill-opacity:1;"><g transform="translate(138.516798, 205.963052)"><path style="stroke:none" d="M 25.5625 -8.4375 L 25.875 0 L 17.15625 0 L 9.875 -13.84375 L 9.40625 -13.84375 L 9.359375 -9.359375 L 9.6875 0 L 2.40625 0 L 2.796875 -7.59375 L 2.40625 -25.875 L 11.125 -25.875 L 18.40625 -12.046875 L 18.875 -12.046875 L 18.640625 -25.59375 L 26 -26.046875 Z M 25.5625 -8.4375 "/></g></g><g style="fill:#263940;fill-opacity:1;"><g transform="translate(168.913963, 205.963052)"><path style="stroke:none" d="M 20.6875 -6.40625 L 21.125 -5.84375 L 20.640625 0 L 2.40625 0 L 2.796875 -7.59375 L 2.40625 -25.875 L 20.953125 -25.875 L 21.40625 -25.3125 L 20.875 -19.484375 L 14.515625 -19.71875 L 10.40625 -19.71875 L 10.3125 -16.078125 L 14.28125 -16.078125 L 18.4375 -16.203125 L 18.875 -15.640625 L 18.40625 -9.796875 L 13.765625 -9.921875 L 10.15625 -9.921875 L 10.125 -8.40625 L 10.203125 -6.15625 L 14.046875 -6.15625 Z M 20.6875 -6.40625 "/></g></g><g style="fill:#263940;fill-opacity:1;"><g transform="translate(192.551801, 205.963052)"><path style="stroke:none" d="M 12.203125 -26.359375 C 14.734375 -26.359375 17.238281 -25.890625 19.71875 -24.953125 L 18.4375 -18.4375 L 17.3125 -17.953125 C 16.195312 -18.648438 15.09375 -19.195312 14 -19.59375 C 12.90625 -20 12.023438 -20.203125 11.359375 -20.203125 C 10.742188 -20.203125 10.253906 -20.082031 9.890625 -19.84375 C 9.535156 -19.601562 9.359375 -19.28125 9.359375 -18.875 C 9.359375 -18.375 9.628906 -17.941406 10.171875 -17.578125 C 10.722656 -17.222656 11.640625 -16.75 12.921875 -16.15625 C 14.410156 -15.488281 15.632812 -14.867188 16.59375 -14.296875 C 17.5625 -13.722656 18.40625 -12.9375 19.125 -11.9375 C 19.84375 -10.9375 20.203125 -9.703125 20.203125 -8.234375 C 20.203125 -6.609375 19.753906 -5.132812 18.859375 -3.8125 C 17.960938 -2.5 16.6875 -1.453125 15.03125 -0.671875 C 13.382812 0.0976562 11.46875 0.484375 9.28125 0.484375 C 6.5625 0.484375 3.707031 -0.0234375 0.71875 -1.046875 L 1.875 -8 L 2.6875 -8.484375 C 3.90625 -7.546875 5.210938 -6.800781 6.609375 -6.25 C 8.015625 -5.707031 9.1875 -5.4375 10.125 -5.4375 C 10.863281 -5.4375 11.398438 -5.5625 11.734375 -5.8125 C 12.066406 -6.070312 12.234375 -6.390625 12.234375 -6.765625 C 12.234375 -7.316406 11.945312 -7.785156 11.375 -8.171875 C 10.800781 -8.566406 9.875 -9.039062 8.59375 -9.59375 C 7.132812 -10.238281 5.929688 -10.847656 4.984375 -11.421875 C 4.035156 -11.992188 3.210938 -12.78125 2.515625 -13.78125 C 1.828125 -14.78125 1.484375 -16.015625 1.484375 -17.484375 C 1.484375 -19.160156 1.9375 -20.671875 2.84375 -22.015625 C 3.75 -23.367188 5.015625 -24.429688 6.640625 -25.203125 C 8.265625 -25.972656 10.117188 -26.359375 12.203125 -26.359375 Z M 12.203125 -26.359375 "/></g></g><g style="fill:#263940;fill-opacity:1;"><g transform="translate(215.669701, 205.963052)"><path style="stroke:none" d="M 13.640625 -26.359375 C 17.398438 -26.359375 20.304688 -25.242188 22.359375 -23.015625 C 24.410156 -20.796875 25.4375 -17.65625 25.4375 -13.59375 C 25.4375 -9.113281 24.3125 -5.644531 22.0625 -3.1875 C 19.8125 -0.738281 16.617188 0.484375 12.484375 0.484375 C 8.722656 0.484375 5.816406 -0.640625 3.765625 -2.890625 C 1.710938 -5.148438 0.6875 -8.347656 0.6875 -12.484375 C 0.6875 -16.910156 1.8125 -20.328125 4.0625 -22.734375 C 6.3125 -25.148438 9.503906 -26.359375 13.640625 -26.359375 Z M 12.921875 -19.953125 C 11.878906 -19.953125 11.09375 -19.769531 10.5625 -19.40625 C 10.03125 -19.050781 9.648438 -18.421875 9.421875 -17.515625 C 9.191406 -16.609375 9.078125 -15.289062 9.078125 -13.5625 C 9.078125 -11.34375 9.195312 -9.660156 9.4375 -8.515625 C 9.675781 -7.367188 10.082031 -6.566406 10.65625 -6.109375 C 11.226562 -5.660156 12.078125 -5.4375 13.203125 -5.4375 C 14.242188 -5.4375 15.03125 -5.613281 15.5625 -5.96875 C 16.09375 -6.332031 16.472656 -6.972656 16.703125 -7.890625 C 16.929688 -8.816406 17.046875 -10.144531 17.046875 -11.875 C 17.046875 -14.0625 16.921875 -15.726562 16.671875 -16.875 C 16.429688 -18.019531 16.023438 -18.816406 15.453125 -19.265625 C 14.878906 -19.722656 14.035156 -19.953125 12.921875 -19.953125 Z M 12.921875 -19.953125 "/></g></g><g style="fill:#263940;fill-opacity:1;"><g transform="translate(243.7871, 205.963052)"><path style="stroke:none" d="M 18.078125 -6 L 17.59375 0 L 2.203125 0 L 2.59375 -7.59375 L 2.203125 -25.875 L 10.359375 -25.875 L 9.921875 -8.40625 L 10 -6.5625 L 17.640625 -6.5625 Z M 18.078125 -6 "/></g></g><g style="fill:#263940;fill-opacity:1;"><g transform="translate(263.865289, 205.963052)"><path style="stroke:none" d="M 24.6875 0 L 16.5625 0 L 15.84375 -4.28125 L 15.796875 -4.40625 L 11.875 -4.484375 L 8.59375 -4.3125 L 7.921875 0 L 0.078125 0 L 7.921875 -25.875 L 17.59375 -25.875 Z M 14.59375 -10.234375 L 12.84375 -18.71875 L 12.359375 -18.71875 L 10.125 -10.234375 L 12.359375 -10.203125 Z M 14.59375 -10.234375 "/></g></g><g style="fill:#263940;fill-opacity:1;"><g transform="translate(290.942786, 205.963052)"><path style="stroke:none" d="M 19.4375 -10.203125 C 21.351562 -7.210938 23.273438 -4.4375 25.203125 -1.875 L 25.078125 -1 C 22.359375 -0.175781 19.679688 0.316406 17.046875 0.484375 L 16.28125 -0.15625 L 15.796875 -1.15625 C 15.585938 -1.582031 15.160156 -2.484375 14.515625 -3.859375 C 13.878906 -5.234375 13.320312 -6.519531 12.84375 -7.71875 L 10.15625 -7.71875 L 10.4375 0 L 2.40625 0 L 2.796875 -7.59375 L 2.40625 -25.875 L 14.6875 -25.921875 C 17.59375 -25.921875 19.832031 -25.234375 21.40625 -23.859375 C 22.976562 -22.484375 23.765625 -20.503906 23.765625 -17.921875 C 23.765625 -16.398438 23.382812 -14.972656 22.625 -13.640625 C 21.863281 -12.304688 20.800781 -11.160156 19.4375 -10.203125 Z M 15.3125 -17.125 C 15.3125 -18.1875 15.039062 -18.976562 14.5 -19.5 C 13.957031 -20.019531 13.070312 -20.304688 11.84375 -20.359375 L 10.40625 -20.234375 L 10.234375 -13.5625 L 13.15625 -13.40625 C 13.90625 -13.75 14.453125 -14.210938 14.796875 -14.796875 C 15.140625 -15.390625 15.3125 -16.164062 15.3125 -17.125 Z M 15.3125 -17.125 "/></g></g><g style="fill:#263940;fill-opacity:1;"><g transform="translate(139.153149, 229.045634)"><path style="stroke:none" d="M 1.171875 0 L 1.171875 -12.25 L 7.578125 -12.25 C 8.804688 -12.25 9.753906 -11.863281 10.421875 -11.09375 C 11.085938 -10.332031 11.421875 -9.304688 11.421875 -8.015625 C 11.421875 -6.734375 11.085938 -5.707031 10.421875 -4.9375 C 9.753906 -4.164062 8.804688 -3.78125 7.578125 -3.78125 L 4.15625 -3.78125 L 4.15625 0 Z M 4.15625 -6.40625 L 6.9375 -6.40625 C 7.9375 -6.40625 8.4375 -6.941406 8.4375 -8.015625 C 8.4375 -9.066406 7.9375 -9.59375 6.9375 -9.59375 L 4.15625 -9.59375 Z M 4.15625 -6.40625 "/></g></g><g style="fill:#263940;fill-opacity:1;"><g transform="translate(152.383217, 229.045634)"><path style="stroke:none" d="M 1.171875 -12.25 L 4.15625 -12.25 L 4.15625 -2.671875 L 10.75 -2.671875 L 10.75 0 L 1.171875 0 Z M 1.171875 -12.25 "/></g></g><g style="fill:#263940;fill-opacity:1;"><g transform="translate(164.374278, 229.045634)"><path style="stroke:none" d="M 1.171875 -4.890625 L 1.171875 -12.25 L 4.15625 -12.25 L 4.15625 -4.890625 C 4.15625 -4.035156 4.40625 -3.398438 4.90625 -2.984375 C 5.40625 -2.578125 6.054688 -2.375 6.859375 -2.375 C 7.691406 -2.375 8.34375 -2.578125 8.8125 -2.984375 C 9.289062 -3.398438 9.53125 -4.035156 9.53125 -4.890625 L 9.53125 -12.25 L 12.515625 -12.25 L 12.515625 -4.890625 C 12.515625 -3.148438 12.003906 -1.851562 10.984375 -1 C 9.960938 -0.15625 8.585938 0.265625 6.859375 0.265625 C 5.710938 0.265625 4.710938 0.0859375 3.859375 -0.265625 C 3.003906 -0.628906 2.34375 -1.191406 1.875 -1.953125 C 1.40625 -2.722656 1.171875 -3.703125 1.171875 -4.890625 Z M 1.171875 -4.890625 "/></g></g><g style="fill:#263940;fill-opacity:1;"><g transform="translate(179.095351, 229.045634)"><path style="stroke:none" d="M 9.578125 -11.546875 L 9.578125 -9.09375 C 8.929688 -9.414062 8.285156 -9.644531 7.640625 -9.78125 C 6.992188 -9.925781 6.398438 -10 5.859375 -10 C 5.171875 -10 4.671875 -9.898438 4.359375 -9.703125 C 4.054688 -9.503906 3.90625 -9.222656 3.90625 -8.859375 C 3.90625 -8.273438 4.335938 -7.867188 5.203125 -7.640625 L 7.21875 -7.078125 C 8.382812 -6.765625 9.222656 -6.328125 9.734375 -5.765625 C 10.253906 -5.210938 10.515625 -4.414062 10.515625 -3.375 C 10.515625 -2.34375 10.117188 -1.476562 9.328125 -0.78125 C 8.535156 -0.0820312 7.3125 0.265625 5.65625 0.265625 C 4.644531 0.265625 3.742188 0.175781 2.953125 0 C 2.171875 -0.175781 1.5 -0.4375 0.9375 -0.78125 L 0.9375 -3.4375 C 1.695312 -3.019531 2.46875 -2.71875 3.25 -2.53125 C 4.039062 -2.34375 4.863281 -2.25 5.71875 -2.25 C 6.34375 -2.25 6.800781 -2.351562 7.09375 -2.5625 C 7.382812 -2.769531 7.53125 -3.039062 7.53125 -3.375 C 7.53125 -3.65625 7.4375 -3.898438 7.25 -4.109375 C 7.0625 -4.328125 6.734375 -4.5 6.265625 -4.625 L 4.15625 -5.1875 C 3.175781 -5.457031 2.394531 -5.867188 1.8125 -6.421875 C 1.226562 -6.984375 0.9375 -7.796875 0.9375 -8.859375 C 0.9375 -9.984375 1.328125 -10.875 2.109375 -11.53125 C 2.898438 -12.195312 4.003906 -12.53125 5.421875 -12.53125 C 6.316406 -12.53125 7.097656 -12.445312 7.765625 -12.28125 C 8.441406 -12.125 9.046875 -11.878906 9.578125 -11.546875 Z M 9.578125 -11.546875 "/></g></g><g style="fill:#263940;fill-opacity:1;"><g transform="translate(191.191412, 229.045634)"><path style="stroke:none" d=""/></g></g><g style="fill:#263940;fill-opacity:1;"><g transform="translate(196.357446, 229.045634)"><path style="stroke:none" d="M 1.171875 -12.25 L 4.15625 -12.25 L 4.15625 0 L 1.171875 0 Z M 1.171875 -12.25 "/></g></g><g style="fill:#263940;fill-opacity:1;"><g transform="translate(202.720487, 229.045634)"><path style="stroke:none" d="M 1.171875 0 L 1.171875 -12.25 L 3.5 -12.25 L 9.53125 -5.109375 L 9.53125 -12.25 L 12.515625 -12.25 L 12.515625 0 L 10.1875 0 L 4.15625 -7.140625 L 4.15625 0 Z M 1.171875 0 "/></g></g><g style="fill:#263940;fill-opacity:1;"><g transform="translate(217.441559, 229.045634)"><path style="stroke:none" d="M 7.21875 -12.53125 C 8.332031 -12.53125 9.25 -12.445312 9.96875 -12.28125 C 10.6875 -12.113281 11.328125 -11.882812 11.890625 -11.59375 L 11.890625 -9.015625 C 11.242188 -9.328125 10.59375 -9.546875 9.9375 -9.671875 C 9.28125 -9.804688 8.523438 -9.875 7.671875 -9.875 C 6.421875 -9.875 5.453125 -9.550781 4.765625 -8.90625 C 4.078125 -8.257812 3.734375 -7.332031 3.734375 -6.125 C 3.734375 -4.925781 4.078125 -4.003906 4.765625 -3.359375 C 5.453125 -2.710938 6.421875 -2.390625 7.671875 -2.390625 C 8.523438 -2.390625 9.28125 -2.453125 9.9375 -2.578125 C 10.59375 -2.703125 11.242188 -2.921875 11.890625 -3.234375 L 11.890625 -0.671875 C 11.328125 -0.378906 10.6875 -0.148438 9.96875 0.015625 C 9.25 0.179688 8.332031 0.265625 7.21875 0.265625 C 5.945312 0.265625 4.820312 0.015625 3.84375 -0.484375 C 2.875 -0.984375 2.113281 -1.710938 1.5625 -2.671875 C 1.019531 -3.628906 0.75 -4.78125 0.75 -6.125 C 0.75 -7.46875 1.019531 -8.617188 1.5625 -9.578125 C 2.113281 -10.546875 2.875 -11.28125 3.84375 -11.78125 C 4.820312 -12.28125 5.945312 -12.53125 7.21875 -12.53125 Z M 7.21875 -12.53125 "/></g></g><g style="fill:#263940;fill-opacity:1;"><g transform="translate(231.091625, 229.045634)"><path style="stroke:none" d="M 0.75 -1.359375 C 0.75 -1.804688 0.90625 -2.1875 1.21875 -2.5 C 1.53125 -2.820312 1.910156 -2.984375 2.359375 -2.984375 C 2.804688 -2.984375 3.1875 -2.820312 3.5 -2.5 C 3.8125 -2.1875 3.96875 -1.804688 3.96875 -1.359375 C 3.96875 -0.910156 3.8125 -0.523438 3.5 -0.203125 C 3.1875 0.109375 2.804688 0.265625 2.359375 0.265625 C 1.910156 0.265625 1.53125 0.109375 1.21875 -0.203125 C 0.90625 -0.523438 0.75 -0.910156 0.75 -1.359375 Z M 0.75 -1.359375 "/></g></g><g style="fill:#f4edcc;fill-opacity:1;"><g transform="translate(155.984393, 273.274376)"><path style="stroke:none" d="M 18.421875 -16.953125 C 18.765625 -16.953125 19.03125 -16.832031 19.21875 -16.59375 C 19.414062 -16.351562 19.515625 -16.082031 19.515625 -15.78125 C 19.515625 -15.457031 19.390625 -15.160156 19.140625 -14.890625 C 18.890625 -14.628906 18.484375 -14.484375 17.921875 -14.453125 L 13.21875 -14.453125 L 12.09375 -11.234375 L 13.140625 -11.234375 C 13.441406 -11.234375 13.679688 -11.117188 13.859375 -10.890625 C 14.035156 -10.660156 14.125 -10.394531 14.125 -10.09375 C 14.125 -9.757812 13.992188 -9.445312 13.734375 -9.15625 C 13.472656 -8.875 13.035156 -8.734375 12.421875 -8.734375 L 11.21875 -8.734375 C 10.96875 -8.046875 10.691406 -7.285156 10.390625 -6.453125 C 10.085938 -5.617188 9.816406 -4.847656 9.578125 -4.140625 C 9.203125 -3.078125 8.738281 -2.242188 8.1875 -1.640625 C 7.632812 -1.035156 7.03125 -0.609375 6.375 -0.359375 C 5.726562 -0.117188 5.054688 0 4.359375 0 C 3.492188 0 2.71875 -0.179688 2.03125 -0.546875 C 1.34375 -0.910156 0.804688 -1.382812 0.421875 -1.96875 C 0.0351562 -2.550781 -0.15625 -3.15625 -0.15625 -3.78125 C -0.15625 -4.414062 0.0078125 -4.878906 0.34375 -5.171875 C 0.675781 -5.472656 1.039062 -5.625 1.4375 -5.625 C 1.820312 -5.625 2.1875 -5.492188 2.53125 -5.234375 C 2.875 -4.972656 3.046875 -4.609375 3.046875 -4.140625 C 3.046875 -4.003906 3.023438 -3.863281 2.984375 -3.71875 C 3.078125 -3.476562 3.242188 -3.257812 3.484375 -3.0625 C 3.722656 -2.863281 4.019531 -2.765625 4.375 -2.765625 C 4.726562 -2.765625 5.050781 -2.816406 5.34375 -2.921875 C 5.644531 -3.035156 5.921875 -3.253906 6.171875 -3.578125 C 6.429688 -3.898438 6.675781 -4.375 6.90625 -5 L 8.234375 -8.71875 L 8.046875 -8.71875 C 7.554688 -8.71875 7.191406 -8.84375 6.953125 -9.09375 C 6.710938 -9.351562 6.59375 -9.632812 6.59375 -9.9375 C 6.59375 -10.257812 6.726562 -10.554688 7 -10.828125 C 7.269531 -11.097656 7.671875 -11.234375 8.203125 -11.234375 L 9.125 -11.234375 L 10.34375 -14.453125 L 9.140625 -14.453125 C 8.773438 -14.453125 8.488281 -14.578125 8.28125 -14.828125 C 8.082031 -15.078125 7.984375 -15.347656 7.984375 -15.640625 C 7.984375 -15.960938 8.109375 -16.257812 8.359375 -16.53125 C 8.609375 -16.8125 9.019531 -16.953125 9.59375 -16.953125 Z M 18.421875 -16.953125 "/></g></g><g style="fill:#f4edcc;fill-opacity:1;"><g transform="translate(169.69914, 273.274376)"><path style="stroke:none" d="M 12.546875 -6.765625 C 12.835938 -6.765625 13.09375 -6.675781 13.3125 -6.5 C 13.53125 -6.320312 13.640625 -6.0625 13.640625 -5.71875 C 13.640625 -5.539062 13.59375 -5.316406 13.5 -5.046875 C 13.40625 -4.785156 13.285156 -4.460938 13.140625 -4.078125 C 12.710938 -2.992188 12.203125 -2.160156 11.609375 -1.578125 C 11.015625 -0.992188 10.398438 -0.582031 9.765625 -0.34375 C 9.128906 -0.113281 8.535156 0 7.984375 0 C 7.785156 0 7.515625 -0.0234375 7.171875 -0.078125 C 6.828125 -0.128906 6.484375 -0.234375 6.140625 -0.390625 C 5.804688 -0.546875 5.53125 -0.773438 5.3125 -1.078125 C 4.945312 -0.742188 4.53125 -0.476562 4.0625 -0.28125 C 3.601562 -0.09375 3.144531 0 2.6875 0 C 2.09375 0 1.5625 -0.132812 1.09375 -0.40625 C 0.632812 -0.675781 0.269531 -1.039062 0 -1.5 C -0.28125 -1.96875 -0.421875 -2.472656 -0.421875 -3.015625 C -0.421875 -3.203125 -0.398438 -3.382812 -0.359375 -3.5625 C -0.316406 -3.75 -0.269531 -3.925781 -0.21875 -4.09375 L 1.65625 -9.484375 C 1.925781 -10.253906 2.378906 -10.820312 3.015625 -11.1875 C 3.660156 -11.550781 4.304688 -11.734375 4.953125 -11.734375 C 5.460938 -11.734375 5.90625 -11.671875 6.28125 -11.546875 C 6.664062 -11.429688 6.96875 -11.3125 7.1875 -11.1875 C 7.34375 -11.4375 7.550781 -11.625 7.8125 -11.75 C 8.082031 -11.875 8.359375 -11.9375 8.640625 -11.9375 C 9.015625 -11.9375 9.347656 -11.820312 9.640625 -11.59375 C 9.941406 -11.375 10.09375 -11.039062 10.09375 -10.59375 C 10.09375 -10.394531 10.054688 -10.175781 9.984375 -9.9375 L 7.734375 -3.453125 C 7.671875 -3.210938 7.640625 -3.019531 7.640625 -2.875 C 7.640625 -2.539062 7.820312 -2.375 8.1875 -2.375 C 8.488281 -2.375 8.816406 -2.476562 9.171875 -2.6875 C 9.523438 -2.894531 9.875 -3.238281 10.21875 -3.71875 C 10.5625 -4.195312 10.863281 -4.84375 11.125 -5.65625 C 11.238281 -6.039062 11.429688 -6.320312 11.703125 -6.5 C 11.984375 -6.675781 12.265625 -6.765625 12.546875 -6.765625 Z M 5.9375 -6.953125 C 6.101562 -7.460938 6.1875 -7.859375 6.1875 -8.140625 C 6.1875 -8.484375 6.097656 -8.742188 5.921875 -8.921875 C 5.742188 -9.109375 5.5625 -9.203125 5.375 -9.203125 C 5.21875 -9.203125 5.015625 -9.125 4.765625 -8.96875 C 4.523438 -8.8125 4.3125 -8.425781 4.125 -7.8125 L 2.84375 -3.796875 C 2.8125 -3.703125 2.78125 -3.597656 2.75 -3.484375 C 2.726562 -3.367188 2.71875 -3.25 2.71875 -3.125 C 2.71875 -2.625 2.9375 -2.375 3.375 -2.375 C 3.59375 -2.375 3.859375 -2.476562 4.171875 -2.6875 C 4.492188 -2.894531 4.765625 -3.328125 4.984375 -3.984375 Z M 5.9375 -6.953125 "/></g></g><g style="fill:#f4edcc;fill-opacity:1;"><g transform="translate(180.595002, 273.274376)"><path style="stroke:none" d="M 17.71875 -6.703125 C 18.03125 -6.703125 18.304688 -6.613281 18.546875 -6.4375 C 18.785156 -6.269531 18.90625 -6.023438 18.90625 -5.703125 C 18.90625 -5.628906 18.894531 -5.554688 18.875 -5.484375 C 18.863281 -5.410156 18.84375 -5.34375 18.8125 -5.28125 C 18.363281 -3.945312 17.828125 -2.894531 17.203125 -2.125 C 16.585938 -1.363281 15.941406 -0.816406 15.265625 -0.484375 C 14.597656 -0.160156 13.929688 0 13.265625 0 C 12.671875 0 12.128906 -0.109375 11.640625 -0.328125 C 11.148438 -0.546875 10.753906 -0.867188 10.453125 -1.296875 C 10.148438 -1.722656 10 -2.238281 10 -2.84375 C 10 -3.28125 10.078125 -3.726562 10.234375 -4.1875 L 11.765625 -8.3125 C 11.816406 -8.476562 11.84375 -8.628906 11.84375 -8.765625 C 11.84375 -8.953125 11.78125 -9.097656 11.65625 -9.203125 C 11.539062 -9.316406 11.390625 -9.375 11.203125 -9.375 C 10.867188 -9.375 10.535156 -9.226562 10.203125 -8.9375 C 9.867188 -8.65625 9.609375 -8.265625 9.421875 -7.765625 L 7.125 -1.265625 C 6.976562 -0.835938 6.742188 -0.519531 6.421875 -0.3125 C 6.097656 -0.101562 5.769531 0 5.4375 0 C 5.101562 0 4.804688 -0.101562 4.546875 -0.3125 C 4.285156 -0.519531 4.15625 -0.8125 4.15625 -1.1875 C 4.15625 -1.394531 4.207031 -1.640625 4.3125 -1.921875 L 6.65625 -8.421875 C 6.707031 -8.535156 6.734375 -8.660156 6.734375 -8.796875 C 6.734375 -8.984375 6.671875 -9.125 6.546875 -9.21875 C 6.421875 -9.320312 6.257812 -9.375 6.0625 -9.375 C 5.769531 -9.375 5.472656 -9.257812 5.171875 -9.03125 C 4.867188 -8.800781 4.613281 -8.472656 4.40625 -8.046875 L 2.015625 -1.203125 C 1.878906 -0.796875 1.660156 -0.492188 1.359375 -0.296875 C 1.054688 -0.0976562 0.726562 0 0.375 0 C 0.03125 0 -0.273438 -0.0976562 -0.546875 -0.296875 C -0.816406 -0.492188 -0.953125 -0.78125 -0.953125 -1.15625 C -0.953125 -1.320312 -0.925781 -1.484375 -0.875 -1.640625 L 2.3125 -10.859375 C 2.4375 -11.148438 2.640625 -11.367188 2.921875 -11.515625 C 3.210938 -11.660156 3.507812 -11.734375 3.8125 -11.734375 C 4.039062 -11.734375 4.253906 -11.691406 4.453125 -11.609375 C 4.660156 -11.535156 4.816406 -11.425781 4.921875 -11.28125 C 5.109375 -11.382812 5.328125 -11.484375 5.578125 -11.578125 C 5.828125 -11.679688 6.160156 -11.734375 6.578125 -11.734375 C 7.160156 -11.734375 7.625 -11.640625 7.96875 -11.453125 C 8.320312 -11.273438 8.601562 -11.0625 8.8125 -10.8125 C 9.28125 -11.1875 9.753906 -11.429688 10.234375 -11.546875 C 10.710938 -11.671875 11.132812 -11.734375 11.5 -11.734375 C 12.113281 -11.734375 12.671875 -11.617188 13.171875 -11.390625 C 13.671875 -11.171875 14.066406 -10.859375 14.359375 -10.453125 C 14.660156 -10.046875 14.8125 -9.554688 14.8125 -8.984375 C 14.8125 -8.804688 14.796875 -8.617188 14.765625 -8.421875 C 14.734375 -8.234375 14.6875 -8.046875 14.625 -7.859375 L 12.921875 -3.203125 C 12.910156 -3.160156 12.898438 -3.113281 12.890625 -3.0625 C 12.878906 -3.019531 12.875 -2.972656 12.875 -2.921875 C 12.875 -2.773438 12.925781 -2.644531 13.03125 -2.53125 C 13.132812 -2.425781 13.285156 -2.375 13.484375 -2.375 C 13.953125 -2.375 14.441406 -2.632812 14.953125 -3.15625 C 15.472656 -3.6875 15.957031 -4.554688 16.40625 -5.765625 C 16.507812 -6.078125 16.6875 -6.3125 16.9375 -6.46875 C 17.1875 -6.625 17.445312 -6.703125 17.71875 -6.703125 Z M 17.71875 -6.703125 "/></g></g><g style="fill:#f4edcc;fill-opacity:1;"><g transform="translate(196.708809, 273.274376)"><path style="stroke:none" d="M 5.375 -13.578125 C 4.925781 -13.578125 4.539062 -13.738281 4.21875 -14.0625 C 3.894531 -14.394531 3.734375 -14.785156 3.734375 -15.234375 C 3.734375 -15.691406 3.894531 -16.078125 4.21875 -16.390625 C 4.539062 -16.703125 4.925781 -16.859375 5.375 -16.859375 C 5.832031 -16.859375 6.21875 -16.703125 6.53125 -16.390625 C 6.851562 -16.078125 7.015625 -15.691406 7.015625 -15.234375 C 7.015625 -14.785156 6.851562 -14.394531 6.53125 -14.0625 C 6.21875 -13.738281 5.832031 -13.578125 5.375 -13.578125 Z M 2.6875 -3.375 C 2.644531 -3.257812 2.625 -3.15625 2.625 -3.0625 C 2.625 -2.875 2.691406 -2.710938 2.828125 -2.578125 C 2.972656 -2.441406 3.15625 -2.375 3.375 -2.375 C 3.78125 -2.375 4.234375 -2.617188 4.734375 -3.109375 C 5.234375 -3.609375 5.71875 -4.503906 6.1875 -5.796875 C 6.300781 -6.109375 6.476562 -6.335938 6.71875 -6.484375 C 6.96875 -6.628906 7.226562 -6.703125 7.5 -6.703125 C 7.800781 -6.703125 8.078125 -6.609375 8.328125 -6.421875 C 8.578125 -6.242188 8.703125 -6.003906 8.703125 -5.703125 C 8.703125 -5.578125 8.679688 -5.457031 8.640625 -5.34375 C 8.171875 -3.96875 7.632812 -2.890625 7.03125 -2.109375 C 6.425781 -1.328125 5.785156 -0.78125 5.109375 -0.46875 C 4.429688 -0.15625 3.769531 0 3.125 0 C 2.507812 0 1.941406 -0.113281 1.421875 -0.34375 C 0.910156 -0.582031 0.5 -0.921875 0.1875 -1.359375 C -0.125 -1.796875 -0.28125 -2.328125 -0.28125 -2.953125 C -0.28125 -3.128906 -0.242188 -3.335938 -0.171875 -3.578125 C -0.109375 -3.816406 -0.0507812 -4.035156 0 -4.234375 C 0.207031 -4.867188 0.4375 -5.535156 0.6875 -6.234375 C 0.9375 -6.941406 1.179688 -7.648438 1.421875 -8.359375 C 1.671875 -9.066406 1.90625 -9.734375 2.125 -10.359375 C 2.28125 -10.828125 2.507812 -11.171875 2.8125 -11.390625 C 3.113281 -11.617188 3.414062 -11.734375 3.71875 -11.734375 C 4.0625 -11.734375 4.367188 -11.617188 4.640625 -11.390625 C 4.921875 -11.171875 5.0625 -10.84375 5.0625 -10.40625 C 5.0625 -10.3125 5.039062 -10.195312 5 -10.0625 C 4.957031 -9.925781 4.914062 -9.789062 4.875 -9.65625 Z M 2.6875 -3.375 "/></g></g><g style="fill:#f4edcc;fill-opacity:1;"><g transform="translate(202.62664, 273.274376)"><path style="stroke:none" d="M 2.734375 -3.265625 C 2.722656 -3.210938 2.707031 -3.148438 2.6875 -3.078125 C 2.664062 -3.015625 2.65625 -2.960938 2.65625 -2.921875 C 2.65625 -2.773438 2.707031 -2.644531 2.8125 -2.53125 C 2.925781 -2.425781 3.082031 -2.375 3.28125 -2.375 C 3.75 -2.375 4.25 -2.644531 4.78125 -3.1875 C 5.320312 -3.726562 5.820312 -4.597656 6.28125 -5.796875 C 6.425781 -6.171875 6.617188 -6.4375 6.859375 -6.59375 C 7.097656 -6.757812 7.34375 -6.84375 7.59375 -6.84375 C 7.90625 -6.84375 8.179688 -6.738281 8.421875 -6.53125 C 8.660156 -6.320312 8.78125 -6.054688 8.78125 -5.734375 C 8.78125 -5.617188 8.757812 -5.488281 8.71875 -5.34375 C 8.25 -3.957031 7.691406 -2.875 7.046875 -2.09375 C 6.398438 -1.320312 5.726562 -0.78125 5.03125 -0.46875 C 4.34375 -0.15625 3.679688 0 3.046875 0 C 2.453125 0 1.90625 -0.109375 1.40625 -0.328125 C 0.90625 -0.546875 0.503906 -0.867188 0.203125 -1.296875 C -0.0859375 -1.722656 -0.234375 -2.242188 -0.234375 -2.859375 C -0.234375 -3.273438 -0.15625 -3.707031 0 -4.15625 L 4.15625 -16.046875 C 4.46875 -16.921875 4.992188 -17.359375 5.734375 -17.359375 C 6.046875 -17.359375 6.34375 -17.242188 6.625 -17.015625 C 6.914062 -16.796875 7.0625 -16.488281 7.0625 -16.09375 C 7.0625 -15.882812 7.019531 -15.660156 6.9375 -15.421875 Z M 2.734375 -3.265625 "/></g></g><g style="fill:#f4edcc;fill-opacity:1;"><g transform="translate(208.604449, 273.274376)"><path style="stroke:none" d="M 2.765625 -3.4375 C 2.691406 -3.238281 2.65625 -3.070312 2.65625 -2.9375 C 2.65625 -2.550781 2.847656 -2.359375 3.234375 -2.359375 C 3.503906 -2.359375 3.804688 -2.472656 4.140625 -2.703125 C 4.472656 -2.929688 4.800781 -3.3125 5.125 -3.84375 L 7.421875 -10.59375 C 7.566406 -11 7.769531 -11.289062 8.03125 -11.46875 C 8.300781 -11.644531 8.578125 -11.734375 8.859375 -11.734375 C 9.234375 -11.734375 9.566406 -11.609375 9.859375 -11.359375 C 10.160156 -11.109375 10.3125 -10.773438 10.3125 -10.359375 C 10.3125 -10.203125 10.285156 -10.039062 10.234375 -9.875 L 7.421875 -1.734375 C 8.203125 -2.140625 8.910156 -2.660156 9.546875 -3.296875 C 10.179688 -3.941406 10.6875 -4.769531 11.0625 -5.78125 C 11.207031 -6.164062 11.410156 -6.445312 11.671875 -6.625 C 11.929688 -6.8125 12.191406 -6.90625 12.453125 -6.90625 C 12.765625 -6.90625 13.03125 -6.8125 13.25 -6.625 C 13.46875 -6.4375 13.578125 -6.164062 13.578125 -5.8125 C 13.578125 -5.65625 13.550781 -5.503906 13.5 -5.359375 C 13.15625 -4.304688 12.722656 -3.410156 12.203125 -2.671875 C 11.679688 -1.929688 11.097656 -1.304688 10.453125 -0.796875 C 9.816406 -0.296875 9.148438 0.117188 8.453125 0.453125 C 7.753906 0.785156 7.039062 1.066406 6.3125 1.296875 C 6.164062 1.710938 6.015625 2.132812 5.859375 2.5625 C 5.710938 2.988281 5.566406 3.414062 5.421875 3.84375 C 5.003906 5 4.363281 5.847656 3.5 6.390625 C 2.644531 6.941406 1.722656 7.21875 0.734375 7.21875 C 0.0859375 7.21875 -0.519531 7.082031 -1.09375 6.8125 C -1.664062 6.550781 -2.128906 6.175781 -2.484375 5.6875 C -2.835938 5.195312 -3.015625 4.632812 -3.015625 4 C -3.015625 3.382812 -2.878906 2.851562 -2.609375 2.40625 C -2.335938 1.957031 -1.96875 1.578125 -1.5 1.265625 C -1.03125 0.960938 -0.507812 0.707031 0.0625 0.5 C 0.632812 0.300781 1.226562 0.132812 1.84375 0 C 1.1875 -0.132812 0.644531 -0.429688 0.21875 -0.890625 C -0.207031 -1.347656 -0.421875 -1.914062 -0.421875 -2.59375 C -0.421875 -2.988281 -0.351562 -3.363281 -0.21875 -3.71875 L 2.203125 -10.59375 C 2.347656 -11 2.550781 -11.289062 2.8125 -11.46875 C 3.082031 -11.644531 3.359375 -11.734375 3.640625 -11.734375 C 4.015625 -11.734375 4.347656 -11.609375 4.640625 -11.359375 C 4.941406 -11.109375 5.09375 -10.773438 5.09375 -10.359375 C 5.09375 -10.171875 5.054688 -9.960938 4.984375 -9.734375 Z M 2.65625 2.21875 C 2.007812 2.394531 1.457031 2.585938 1 2.796875 C 0.539062 3.015625 0.238281 3.296875 0.09375 3.640625 C 0.0390625 3.753906 0.015625 3.894531 0.015625 4.0625 C 0.015625 4.226562 0.0664062 4.375 0.171875 4.5 C 0.285156 4.632812 0.457031 4.703125 0.6875 4.703125 C 0.988281 4.703125 1.28125 4.609375 1.5625 4.421875 C 1.84375 4.234375 2.050781 3.953125 2.1875 3.578125 Z M 2.65625 2.21875 "/></g></g><g style="fill:#f4edcc;fill-opacity:1;"><g transform="translate(161.634692, 299.370362)"><path style="stroke:none" d="M 0.90625 -2.59375 L 0.90625 -11.8125 C 0.90625 -12.65625 1.125 -13.296875 1.5625 -13.734375 C 2.007812 -14.179688 2.648438 -14.40625 3.484375 -14.40625 L 5.515625 -14.40625 C 6.359375 -14.40625 7 -14.179688 7.4375 -13.734375 C 7.875 -13.296875 8.09375 -12.65625 8.09375 -11.8125 L 8.09375 -2.59375 C 8.09375 -1.75 7.875 -1.101562 7.4375 -0.65625 C 7 -0.21875 6.359375 0 5.515625 0 L 3.484375 0 C 2.648438 0 2.007812 -0.21875 1.5625 -0.65625 C 1.125 -1.101562 0.90625 -1.75 0.90625 -2.59375 Z M 4.015625 -2.328125 L 5.0625 -2.328125 C 5.539062 -2.328125 5.78125 -2.566406 5.78125 -3.046875 L 5.78125 -11.359375 C 5.78125 -11.835938 5.539062 -12.078125 5.0625 -12.078125 L 4.015625 -12.078125 C 3.535156 -12.078125 3.296875 -11.835938 3.296875 -11.359375 L 3.296875 -3.046875 C 3.296875 -2.566406 3.535156 -2.328125 4.015625 -2.328125 Z M 4.015625 -2.328125 "/></g></g><g style="fill:#f4edcc;fill-opacity:1;"><g transform="translate(170.994676, 299.370362)"><path style="stroke:none" d="M 11.09375 -12.59375 L 12.78125 -12.59375 C 13.039062 -12.59375 13.15625 -12.46875 13.125 -12.21875 L 11.390625 -0.328125 C 11.359375 -0.109375 11.226562 0 11 0 L 9.046875 0 C 8.847656 0 8.71875 -0.109375 8.65625 -0.328125 L 7 -7.703125 L 5.328125 -0.328125 C 5.273438 -0.109375 5.144531 0 4.9375 0 L 2.953125 0 C 2.722656 0 2.59375 -0.113281 2.5625 -0.34375 L 0.90625 -12.21875 C 0.863281 -12.46875 0.972656 -12.59375 1.234375 -12.59375 L 2.9375 -12.59375 C 3.15625 -12.59375 3.28125 -12.484375 3.3125 -12.265625 L 4.1875 -4.734375 L 4.28125 -4.734375 L 6.046875 -12.296875 C 6.109375 -12.492188 6.238281 -12.59375 6.4375 -12.59375 L 7.546875 -12.59375 C 7.742188 -12.59375 7.875 -12.492188 7.9375 -12.296875 L 9.703125 -4.734375 L 9.796875 -4.734375 L 10.703125 -12.265625 C 10.742188 -12.484375 10.875 -12.59375 11.09375 -12.59375 Z M 11.09375 -12.59375 "/></g></g><g style="fill:#f4edcc;fill-opacity:1;"><g transform="translate(185.160642, 299.370362)"><path style="stroke:none" d="M 6.609375 -12.59375 L 8.296875 -12.59375 C 8.492188 -12.59375 8.59375 -12.5 8.59375 -12.3125 L 8.59375 -0.28125 C 8.59375 -0.09375 8.492188 0 8.296875 0 L 6.875 0 C 6.726562 0 6.617188 -0.078125 6.546875 -0.234375 L 3.171875 -7.109375 L 3.171875 -0.28125 C 3.171875 -0.09375 3.070312 0 2.875 0 L 1.1875 0 C 1 0 0.90625 -0.09375 0.90625 -0.28125 L 0.90625 -12.3125 C 0.90625 -12.5 1 -12.59375 1.1875 -12.59375 L 2.609375 -12.59375 C 2.753906 -12.59375 2.863281 -12.515625 2.9375 -12.359375 L 6.3125 -5.484375 L 6.3125 -12.3125 C 6.3125 -12.5 6.410156 -12.59375 6.609375 -12.59375 Z M 6.609375 -12.59375 "/></g></g><g style="fill:#f4edcc;fill-opacity:1;"><g transform="translate(195.006623, 299.370362)"><path style="stroke:none" d="M 8.078125 -12.3125 L 8.078125 -10.515625 C 8.078125 -10.304688 7.984375 -10.203125 7.796875 -10.203125 L 3.34375 -10.203125 L 3.34375 -7.4375 L 6.734375 -7.4375 C 6.921875 -7.4375 7.015625 -7.332031 7.015625 -7.125 L 7.015625 -5.34375 C 7.015625 -5.144531 6.921875 -5.046875 6.734375 -5.046875 L 3.34375 -5.046875 L 3.34375 -2.375 L 7.796875 -2.375 C 7.984375 -2.375 8.078125 -2.28125 8.078125 -2.09375 L 8.078125 -0.28125 C 8.078125 -0.09375 7.984375 0 7.796875 0 L 1.171875 0 C 0.992188 0 0.90625 -0.09375 0.90625 -0.28125 L 0.90625 -12.3125 C 0.90625 -12.5 0.992188 -12.59375 1.171875 -12.59375 L 7.796875 -12.59375 C 7.984375 -12.59375 8.078125 -12.5 8.078125 -12.3125 Z M 8.078125 -12.3125 "/></g></g><g style="fill:#f4edcc;fill-opacity:1;"><g transform="translate(204.348606, 299.370362)"><path style="stroke:none" d="M 0.90625 -0.28125 L 0.90625 -12.3125 C 0.90625 -12.5 1 -12.59375 1.1875 -12.59375 L 5.515625 -12.59375 C 6.359375 -12.59375 7 -12.367188 7.4375 -11.921875 C 7.875 -11.484375 8.09375 -10.835938 8.09375 -9.984375 L 8.09375 -2.59375 C 8.09375 -1.75 7.875 -1.101562 7.4375 -0.65625 C 7 -0.21875 6.359375 0 5.515625 0 L 1.1875 0 C 1 0 0.90625 -0.09375 0.90625 -0.28125 Z M 3.34375 -2.375 L 5 -2.375 C 5.476562 -2.375 5.71875 -2.613281 5.71875 -3.09375 L 5.71875 -9.484375 C 5.71875 -9.972656 5.476562 -10.21875 5 -10.21875 L 3.34375 -10.21875 Z M 3.34375 -2.375 "/></g></g><g clip-rule="nonzero" clip-path="url(#550ea0546b)"><path style=" stroke:none;fill-rule:nonzero;fill:#263940;fill-opacity:1;" d="M 129.785156 222.546875 L 121.074219 220.535156 C 120.800781 220.472656 120.585938 220.261719 120.523438 219.984375 L 118.511719 211.273438 C 118.335938 210.515625 117.253906 210.515625 117.078125 211.273438 L 115.066406 219.984375 C 115.003906 220.261719 114.789062 220.472656 114.515625 220.535156 L 105.804688 222.546875 C 105.046875 222.722656 105.046875 223.804688 105.804688 223.980469 L 114.515625 225.992188 C 114.789062 226.054688 115.003906 226.265625 115.066406 226.542969 L 117.078125 235.253906 C 117.253906 236.011719 118.335938 236.011719 118.511719 235.253906 L 120.523438 226.542969 C 120.585938 226.265625 120.800781 226.054688 121.074219 225.992188 L 129.785156 223.980469 C 130.542969 223.804688 130.542969 222.722656 129.785156 222.546875 "/></g><g clip-rule="nonzero" clip-path="url(#14bf7169fe)"><path style=" stroke:none;fill-rule:nonzero;fill:#263940;fill-opacity:1;" d="M 111.8125 241.425781 L 105.125 239.882812 C 104.914062 239.832031 104.75 239.667969 104.703125 239.460938 L 103.15625 232.769531 C 103.023438 232.1875 102.191406 232.1875 102.058594 232.769531 L 100.515625 239.460938 C 100.464844 239.667969 100.300781 239.832031 100.089844 239.882812 L 93.402344 241.425781 C 92.820312 241.558594 92.820312 242.390625 93.402344 242.527344 L 100.089844 244.070312 C 100.300781 244.117188 100.464844 244.28125 100.515625 244.492188 L 102.058594 251.179688 C 102.191406 251.765625 103.023438 251.765625 103.15625 251.179688 L 104.703125 244.492188 C 104.75 244.28125 104.914062 244.117188 105.125 244.070312 L 111.8125 242.527344 C 112.394531 242.390625 112.394531 241.558594 111.8125 241.425781 "/></g><g clip-rule="nonzero" clip-path="url(#c3d2ef38a3)"><path style=" stroke:none;fill-rule:nonzero;fill:#263940;fill-opacity:1;" d="M 269.292969 222.546875 L 260.582031 220.535156 C 260.308594 220.472656 260.09375 220.261719 260.03125 219.984375 L 258.019531 211.273438 C 257.84375 210.515625 256.761719 210.515625 256.589844 211.273438 L 254.578125 219.984375 C 254.515625 220.261719 254.300781 220.472656 254.027344 220.535156 L 245.3125 222.546875 C 244.554688 222.722656 244.554688 223.804688 245.3125 223.980469 L 254.027344 225.992188 C 254.300781 226.054688 254.515625 226.265625 254.578125 226.542969 L 256.589844 235.253906 C 256.761719 236.011719 257.84375 236.011719 258.019531 235.253906 L 260.03125 226.542969 C 260.09375 226.265625 260.308594 226.054688 260.582031 225.992188 L 269.292969 223.980469 C 270.054688 223.804688 270.054688 222.722656 269.292969 222.546875 "/></g><g clip-rule="nonzero" clip-path="url(#b58eb4df89)"><path style=" stroke:none;fill-rule:nonzero;fill:#263940;fill-opacity:1;" d="M 251.324219 241.425781 L 244.632812 239.882812 C 244.425781 239.832031 244.257812 239.667969 244.210938 239.460938 L 242.667969 232.769531 C 242.53125 232.1875 241.703125 232.1875 241.566406 232.769531 L 240.023438 239.460938 C 239.976562 239.667969 239.8125 239.832031 239.601562 239.882812 L 232.910156 241.425781 C 232.328125 241.558594 232.328125 242.390625 232.910156 242.527344 L 239.601562 244.070312 C 239.8125 244.117188 239.976562 244.28125 240.023438 244.492188 L 241.566406 251.179688 C 241.703125 251.765625 242.53125 251.765625 242.667969 251.179688 L 244.210938 244.492188 C 244.257812 244.28125 244.425781 244.117188 244.632812 244.070312 L 251.324219 242.527344 C 251.90625 242.390625 251.90625 241.558594 251.324219 241.425781 "/></g></g></svg>